<svg width="16" height="20" viewBox="0 0 16 20" fill="none" xmlns="http://www.w3.org/2000/svg">
<path d="M9.25 12.5C12.7015 12.5 15.5 9.70184 15.5 6.25C15.5 2.79816 12.7015 0 9.25 0C9.24938 0 9.24937 0 9.24879 0H2.58313C2.35301 0 2.16687 0.186445 2.16687 0.416562V11.6663H0.916875C0.686758 11.6663 0.5 11.853 0.5 12.0837C0.5 12.3132 0.686758 12.5 0.916875 12.5H2.16687V14.1663H0.916875C0.686758 14.1663 0.5 14.353 0.5 14.5837C0.5 14.8132 0.686758 15 0.916875 15H2.16687V19.5837C2.16687 19.8132 2.35305 20 2.58313 20C2.8132 20 3 19.8132 3 19.5837V15H10.0831C10.3132 15 10.5 14.8132 10.5 14.5837C10.5 14.353 10.3132 14.1663 10.0831 14.1663H3V12.5H9.25ZM3 0.833438H9.24879H9.25C9.9818 0.833438 10.6911 0.976563 11.3582 1.25855C12.0033 1.53137 12.5825 1.92199 13.08 2.41977C13.578 2.9175 13.9686 3.49703 14.2414 4.14187C14.5234 4.80895 14.6669 5.51848 14.6669 6.25C14.6669 6.98152 14.5234 7.69105 14.2414 8.35816C13.9686 9.00301 13.578 9.58254 13.08 10.0803C12.5825 10.578 12.0033 10.9686 11.3582 11.2415C10.6911 11.5234 9.9818 11.6663 9.25 11.6663H3V0.833438Z" fill="black"/>
</svg>
