<?xml version="1.0" encoding="utf-8"?><svg xmlns="http://www.w3.org/2000/svg" xmlns:xlink="http://www.w3.org/1999/xlink"><symbol viewBox="0 0 45 23" id="arrow" xmlns="http://www.w3.org/2000/svg"><path d="M44.3 12.986a1.5 1.5 0 0 0 0-2.121l-9.546-9.546a1.5 1.5 0 1 0-2.121 2.121l8.485 8.485-8.485 8.486a1.5 1.5 0 1 0 2.121 2.121l9.546-9.546zm-43.445.44h42.384v-3H.855v3z"/></symbol><symbol viewBox="0 0 97 26" id="arsstrom" xmlns="http://www.w3.org/2000/svg"><path d="M3.132 26l1.044-7.416h4.212L9.468 26h2.376L8.424.8H4.14L.72 26h2.412zm3.24-22.86l1.764 13.248H4.428L6.192 3.14h.18zm9.887 11.34V8.828h3.312c.576 0 1.116.504 1.116 1.116v2.844c0 .864-.756 1.692-1.692 1.692h-2.736zm2.844 2.232c.936 0 1.584.72 1.584 1.656V26h2.232v-7.848c0-1.116-.72-2.16-1.764-2.556 1.044-.576 1.764-1.656 1.764-2.736V9.944c0-1.872-1.512-3.384-3.348-3.384h-5.58V26h2.268v-9.288h2.844zm6.7 2.88v3.06c0 1.836 1.548 3.348 3.384 3.348h1.836c1.872 0 3.384-1.512 3.384-3.348V20.96c0-1.368-.288-2.16-1.26-3.132l-4.212-4.14c-.576-.576-.864-1.152-.864-1.98V9.944c0-.612.504-1.116 1.116-1.116h1.836c.648 0 1.152.504 1.152 1.116v1.872h2.232V9.944a3.38 3.38 0 0 0-3.384-3.384h-1.836c-1.836 0-3.384 1.512-3.384 3.384v1.944c0 1.512.396 2.412 1.512 3.492l4.104 4.068c.504.504.756 1.008.756 1.692v1.512c0 .612-.504 1.116-1.152 1.116h-1.836a1.122 1.122 0 0 1-1.116-1.116v-3.06h-2.268zm11.496 0v3.06c0 1.836 1.548 3.348 3.384 3.348h1.836c1.872 0 3.384-1.512 3.384-3.348V20.96c0-1.368-.288-2.16-1.26-3.132l-4.212-4.14c-.576-.576-.864-1.152-.864-1.98V9.944c0-.612.504-1.116 1.116-1.116h1.836c.648 0 1.152.504 1.152 1.116v1.872h2.232V9.944A3.38 3.38 0 0 0 42.52 6.56h-1.836c-1.836 0-3.384 1.512-3.384 3.384v1.944c0 1.512.396 2.412 1.512 3.492l4.104 4.068c.504.504.756 1.008.756 1.692v1.512c0 .612-.504 1.116-1.152 1.116h-1.836a1.122 1.122 0 0 1-1.116-1.116v-3.06H37.3zM56.644 8.828V6.56h-8.389v2.268h3.06V26h2.233V8.828h3.096zm4.615 5.652V8.828h3.312c.576 0 1.116.504 1.116 1.116v2.844c0 .864-.756 1.692-1.692 1.692h-2.736zm2.844 2.232c.936 0 1.584.72 1.584 1.656V26h2.232v-7.848c0-1.116-.72-2.16-1.764-2.556 1.044-.576 1.764-1.656 1.764-2.736V9.944c0-1.872-1.512-3.384-3.348-3.384h-5.58V26h2.268v-9.288h2.844zm13.792 5.94c0 .612-.504 1.116-1.116 1.116h-2.592a1.122 1.122 0 0 1-1.116-1.116V9.944c0-.612.504-1.116 1.116-1.116h2.592c.612 0 1.116.504 1.116 1.116v12.708zm2.268-12.708c0-1.872-1.548-3.384-3.384-3.384h-2.592c-1.872 0-3.384 1.548-3.384 3.384v12.708c0 1.836 1.512 3.348 3.384 3.348h2.592c1.872 0 3.384-1.512 3.384-3.348V9.944zM96.898 26V6.56h-3.024L89.95 22.652 86.062 6.56h-3.024V26h2.268v-7.308l-.756-9.144L88.582 26h2.772L95.35 9.548l-.72 9V26h2.268z"/></symbol><symbol viewBox="0 0 22 22" id="cart" xmlns="http://www.w3.org/2000/svg"><path d="M16.923 18.616c0 .467.166.866.496 1.196.33.33.73.496 1.197.496a1.63 1.63 0 0 0 1.196-.496c.33-.33.496-.73.496-1.197a1.63 1.63 0 0 0-.496-1.196 1.63 1.63 0 0 0-1.196-.496c-.468 0-.867.166-1.197.496-.33.33-.496.73-.496 1.197z"/><path d="M21.749 3.636a.813.813 0 0 0-.595-.252H5.275a9.489 9.489 0 0 0-.06-.337 59.48 59.48 0 0 1-.072-.39 2.331 2.331 0 0 0-.1-.35 1.054 1.054 0 0 0-.171-.324.844.844 0 0 0-.641-.29H.846a.814.814 0 0 0-.595.25.813.813 0 0 0-.251.595c0 .23.084.428.251.595a.814.814 0 0 0 .595.251h2.697l2.34 10.882c-.017.035-.108.202-.27.502-.164.3-.294.562-.39.787-.098.225-.146.399-.146.522 0 .23.084.427.251.595a.815.815 0 0 0 .595.251h13.538c.23 0 .428-.084.595-.25a.814.814 0 0 0 .251-.596.813.813 0 0 0-.251-.595.814.814 0 0 0-.595-.251H7.298c.212-.424.317-.705.317-.846 0-.089-.01-.186-.033-.291a12.003 12.003 0 0 0-.08-.35 3.32 3.32 0 0 1-.059-.285l13.804-1.613c.22-.026.4-.12.542-.284A.833.833 0 0 0 22 11V4.23a.814.814 0 0 0-.251-.594z"/><path d="M5.077 18.616c0 .467.165.866.495 1.196.331.33.73.496 1.197.496a1.63 1.63 0 0 0 1.196-.496c.331-.33.496-.73.496-1.197a1.63 1.63 0 0 0-.496-1.196 1.63 1.63 0 0 0-1.196-.496c-.467 0-.866.166-1.197.496-.33.33-.495.73-.495 1.197z"/></symbol><symbol viewBox="0 0 17 17" id="phone" xmlns="http://www.w3.org/2000/svg"><path d="M16.699 13.173c-.045-.135-.33-.333-.853-.595a26.245 26.245 0 0 0-.606-.337 50.25 50.25 0 0 1-.713-.393c-.213-.12-.413-.236-.6-.348-.03-.022-.124-.088-.281-.196a3.137 3.137 0 0 0-.399-.242.735.735 0 0 0-.32-.078c-.15 0-.336.107-.56.32a5.47 5.47 0 0 0-.618.696c-.187.25-.385.482-.595.696-.21.213-.381.32-.516.32a.763.763 0 0 1-.253-.056c-.1-.038-.177-.07-.23-.096a4.215 4.215 0 0 1-.27-.157 6.949 6.949 0 0 0-.213-.13c-1.025-.568-1.904-1.219-2.637-1.952C6.3 9.89 5.65 9.012 5.082 7.987a6.508 6.508 0 0 0-.13-.213 4.048 4.048 0 0 1-.157-.27 2.431 2.431 0 0 1-.095-.23.76.76 0 0 1-.056-.252c0-.135.107-.307.32-.517.213-.21.445-.408.696-.595.25-.187.482-.392.696-.617.213-.224.32-.411.32-.561a.733.733 0 0 0-.079-.32 3.12 3.12 0 0 0-.241-.399c-.109-.157-.174-.25-.197-.28a24.661 24.661 0 0 1-.348-.6c-.12-.214-.25-.452-.393-.713a26.645 26.645 0 0 0-.336-.606c-.262-.524-.46-.809-.595-.853A.629.629 0 0 0 4.25.927c-.202 0-.466.037-.791.112a4.445 4.445 0 0 0-.77.236c-.373.157-.77.613-1.19 1.37-.38.702-.572 1.398-.572 2.087 0 .202.014.398.04.59.026.19.073.405.14.645.067.239.122.417.163.533.04.116.118.323.23.623.112.299.18.482.202.55.262.733.572 1.388.931 1.964.591.958 1.398 1.948 2.42 2.97 1.02 1.02 2.01 1.827 2.968 2.418.576.36 1.231.67 1.965.932.067.022.25.09.55.202.299.112.507.189.622.23.116.041.294.096.534.163.24.067.454.114.645.14.191.026.388.04.59.04.688 0 1.384-.191 2.087-.573.756-.419 1.212-.815 1.37-1.19.082-.187.16-.443.235-.769.075-.325.112-.589.112-.79a.626.626 0 0 0-.033-.237z"/><defs><clipPath id="dclip0"><path transform="translate(.927 .927)" d="M0 0h15.805v15.805H0z"/></clipPath></defs></symbol><symbol viewBox="0 0 21 21" id="search" xmlns="http://www.w3.org/2000/svg"><path fill-rule="evenodd" clip-rule="evenodd" d="M20.258 17.752l-4.499-4.498c-.024-.024-.052-.04-.077-.063a8.513 8.513 0 1 0-2.433 2.433c.023.025.04.053.063.077l4.499 4.498a1.73 1.73 0 0 0 2.447-2.447zM8.57 14.075a5.562 5.562 0 1 1 0-11.124 5.562 5.562 0 0 1 0 11.123z"/><defs><clipPath id="eclip0"><path transform="translate(.059)" d="M0 0h20.706v20.706H0z"/></clipPath></defs></symbol><symbol viewBox="0 0 22 22" id="user" xmlns="http://www.w3.org/2000/svg"><path d="M11 10.76c2.446 0 4.429-2.41 4.429-5.38 0-2.971-.651-5.38-4.43-5.38-3.777 0-4.428 2.409-4.428 5.38 0 2.97 1.983 5.38 4.429 5.38zm-8.366 8.214c0-.181-.001-.051 0 0zm16.731.141c.003-.05.001-.344 0 0zM19.356 18.756c-.082-5.175-.758-6.65-5.931-7.584 0 0-.728.928-2.425.928-1.697 0-2.426-.928-2.426-.928-5.116.924-5.833 2.377-5.927 7.416-.008.412-.012.433-.013.386v.543S3.867 22 11 22c7.133 0 8.365-2.483 8.365-2.483v-.402c-.001.03-.004-.027-.01-.359z"/><defs><clipPath id="fclip0"><path d="M0 0h22v22H0z"/></clipPath></defs></symbol></svg>