<?xml version="1.0" encoding="utf-8"?><svg xmlns="http://www.w3.org/2000/svg" xmlns:xlink="http://www.w3.org/1999/xlink"><symbol viewBox="0 0 10 19" id="arr_down" xmlns="http://www.w3.org/2000/svg"><path d="M6.145 13.085V.77H4.087v12.315l-2.19-3.017-1.666 1.21 4.885 6.726L10 11.277l-1.665-1.208-2.19 3.016z"/></symbol><symbol viewBox="0 0 10 19" id="arr_top" xmlns="http://www.w3.org/2000/svg"><path d="M3.856 5.915V18.23h2.057V5.915l2.19 3.017 1.666-1.21L4.885.996 0 7.722l1.665 1.21 2.19-3.017z"/></symbol><symbol viewBox="0 0 45 23" id="arrow" xmlns="http://www.w3.org/2000/svg"><path d="M44.3 12.986a1.5 1.5 0 0 0 0-2.121l-9.546-9.546a1.5 1.5 0 1 0-2.121 2.121l8.485 8.485-8.485 8.486a1.5 1.5 0 1 0 2.121 2.121l9.546-9.546zm-43.445.44h42.384v-3H.855v3z"/></symbol><symbol viewBox="0 0 97 26" id="arsstrom" xmlns="http://www.w3.org/2000/svg"><path d="M3.132 26l1.044-7.416h4.212L9.468 26h2.376L8.424.8H4.14L.72 26h2.412zm3.24-22.86l1.764 13.248H4.428L6.192 3.14h.18zm9.887 11.34V8.828h3.312c.576 0 1.116.504 1.116 1.116v2.844c0 .864-.756 1.692-1.692 1.692h-2.736zm2.844 2.232c.936 0 1.584.72 1.584 1.656V26h2.232v-7.848c0-1.116-.72-2.16-1.764-2.556 1.044-.576 1.764-1.656 1.764-2.736V9.944c0-1.872-1.512-3.384-3.348-3.384h-5.58V26h2.268v-9.288h2.844zm6.7 2.88v3.06c0 1.836 1.548 3.348 3.384 3.348h1.836c1.872 0 3.384-1.512 3.384-3.348V20.96c0-1.368-.288-2.16-1.26-3.132l-4.212-4.14c-.576-.576-.864-1.152-.864-1.98V9.944c0-.612.504-1.116 1.116-1.116h1.836c.648 0 1.152.504 1.152 1.116v1.872h2.232V9.944a3.38 3.38 0 0 0-3.384-3.384h-1.836c-1.836 0-3.384 1.512-3.384 3.384v1.944c0 1.512.396 2.412 1.512 3.492l4.104 4.068c.504.504.756 1.008.756 1.692v1.512c0 .612-.504 1.116-1.152 1.116h-1.836a1.122 1.122 0 0 1-1.116-1.116v-3.06h-2.268zm11.496 0v3.06c0 1.836 1.548 3.348 3.384 3.348h1.836c1.872 0 3.384-1.512 3.384-3.348V20.96c0-1.368-.288-2.16-1.26-3.132l-4.212-4.14c-.576-.576-.864-1.152-.864-1.98V9.944c0-.612.504-1.116 1.116-1.116h1.836c.648 0 1.152.504 1.152 1.116v1.872h2.232V9.944A3.38 3.38 0 0 0 42.52 6.56h-1.836c-1.836 0-3.384 1.512-3.384 3.384v1.944c0 1.512.396 2.412 1.512 3.492l4.104 4.068c.504.504.756 1.008.756 1.692v1.512c0 .612-.504 1.116-1.152 1.116h-1.836a1.122 1.122 0 0 1-1.116-1.116v-3.06H37.3zM56.644 8.828V6.56h-8.389v2.268h3.06V26h2.233V8.828h3.096zm4.615 5.652V8.828h3.312c.576 0 1.116.504 1.116 1.116v2.844c0 .864-.756 1.692-1.692 1.692h-2.736zm2.844 2.232c.936 0 1.584.72 1.584 1.656V26h2.232v-7.848c0-1.116-.72-2.16-1.764-2.556 1.044-.576 1.764-1.656 1.764-2.736V9.944c0-1.872-1.512-3.384-3.348-3.384h-5.58V26h2.268v-9.288h2.844zm13.792 5.94c0 .612-.504 1.116-1.116 1.116h-2.592a1.122 1.122 0 0 1-1.116-1.116V9.944c0-.612.504-1.116 1.116-1.116h2.592c.612 0 1.116.504 1.116 1.116v12.708zm2.268-12.708c0-1.872-1.548-3.384-3.384-3.384h-2.592c-1.872 0-3.384 1.548-3.384 3.384v12.708c0 1.836 1.512 3.348 3.384 3.348h2.592c1.872 0 3.384-1.512 3.384-3.348V9.944zM96.898 26V6.56h-3.024L89.95 22.652 86.062 6.56h-3.024V26h2.268v-7.308l-.756-9.144L88.582 26h2.772L95.35 9.548l-.72 9V26h2.268z"/></symbol><symbol viewBox="0 0 22 22" id="cart" xmlns="http://www.w3.org/2000/svg"><path d="M16.923 18.616c0 .467.166.866.496 1.196.33.33.73.496 1.197.496a1.63 1.63 0 0 0 1.196-.496c.33-.33.496-.73.496-1.197a1.63 1.63 0 0 0-.496-1.196 1.63 1.63 0 0 0-1.196-.496c-.468 0-.867.166-1.197.496-.33.33-.496.73-.496 1.197z"/><path d="M21.749 3.636a.813.813 0 0 0-.595-.252H5.275a9.489 9.489 0 0 0-.06-.337 59.48 59.48 0 0 1-.072-.39 2.331 2.331 0 0 0-.1-.35 1.054 1.054 0 0 0-.171-.324.844.844 0 0 0-.641-.29H.846a.814.814 0 0 0-.595.25.813.813 0 0 0-.251.595c0 .23.084.428.251.595a.814.814 0 0 0 .595.251h2.697l2.34 10.882c-.017.035-.108.202-.27.502-.164.3-.294.562-.39.787-.098.225-.146.399-.146.522 0 .23.084.427.251.595a.815.815 0 0 0 .595.251h13.538c.23 0 .428-.084.595-.25a.814.814 0 0 0 .251-.596.813.813 0 0 0-.251-.595.814.814 0 0 0-.595-.251H7.298c.212-.424.317-.705.317-.846 0-.089-.01-.186-.033-.291a12.003 12.003 0 0 0-.08-.35 3.32 3.32 0 0 1-.059-.285l13.804-1.613c.22-.026.4-.12.542-.284A.833.833 0 0 0 22 11V4.23a.814.814 0 0 0-.251-.594z"/><path d="M5.077 18.616c0 .467.165.866.495 1.196.331.33.73.496 1.197.496a1.63 1.63 0 0 0 1.196-.496c.331-.33.496-.73.496-1.197a1.63 1.63 0 0 0-.496-1.196 1.63 1.63 0 0 0-1.196-.496c-.467 0-.866.166-1.197.496-.33.33-.495.73-.495 1.197z"/></symbol><symbol viewBox="0 0 107 36" id="dorohov" xmlns="http://www.w3.org/2000/svg"><path d="M44.115 16.001V7.962h3.432c2.542 0 4.414 1.494 4.414 3.998 0 2.504-1.828 3.997-4.369 3.997h-3.477v.044zm5.706-3.997c0-1.23-.758-2.197-2.229-2.197h-1.337V14.2h1.337c1.382 0 2.23-1.01 2.23-2.196zm2.943 0c0-2.46 1.872-4.13 4.369-4.13s4.324 1.713 4.324 4.13c0 2.416-1.872 4.129-4.324 4.129-2.541 0-4.37-1.713-4.37-4.13zm6.553 0c0-1.318-.847-2.329-2.184-2.329-1.338 0-2.23 1.01-2.23 2.329 0 1.318.848 2.328 2.23 2.328 1.293 0 2.184-1.055 2.184-2.328zm7.937 3.997l-1.382-2.68h-1.07v2.68h-2.096V7.962h4.058c1.783 0 2.808 1.186 2.808 2.68 0 1.405-.847 2.152-1.605 2.416L69.617 16h-2.363zm.223-5.36c0-.526-.446-.834-1.025-.834h-1.65v1.713h1.65c.535 0 1.025-.307 1.025-.878zm2.942 1.363c0-2.46 1.873-4.13 4.37-4.13 2.496 0 4.323 1.713 4.323 4.13 0 2.416-1.872 4.129-4.324 4.129-2.496 0-4.37-1.713-4.37-4.13zm6.598 0c0-1.318-.847-2.329-2.184-2.329-1.338 0-2.23 1.01-2.23 2.329 0 1.318.848 2.328 2.23 2.328 1.293 0 2.184-1.055 2.184-2.328zm8.828 3.997v-3.207h-3.388v3.207H80.36V7.962h2.096v3.031h3.388V8.006h2.095v7.995h-2.095zm3.343-3.997c0-2.46 1.873-4.13 4.37-4.13 2.496 0 4.324 1.713 4.324 4.13 0 2.416-1.873 4.129-4.325 4.129-2.496 0-4.369-1.713-4.369-4.13zm6.554 0c0-1.318-.847-2.329-2.23-2.329-1.337 0-2.228 1.01-2.228 2.329 0 1.318.847 2.328 2.229 2.328 1.382 0 2.229-1.055 2.229-2.328zm5.26 3.997l-3.076-8.039h2.363l2.006 5.799 2.007-5.799h2.362l-3.076 7.995h-2.586v.044zM44.115 27.994V20h3.432c2.542 0 4.414 1.494 4.414 3.998 0 2.504-1.828 3.997-4.369 3.997h-3.477zm5.706-3.997c0-1.23-.758-2.197-2.229-2.197h-1.337v4.393h1.337c1.382 0 2.23-1.01 2.23-2.196zm3.389 3.997V20h5.93v1.8h-3.88v1.23h3.79v1.801h-3.79v1.362h3.879v1.801h-5.93zm6.866-1.098l1.114-1.538a3.675 3.675 0 0 0 2.586 1.054c.713 0 1.16-.263 1.16-.659 0-1.098-4.593-.22-4.593-3.294 0-1.362 1.16-2.548 3.255-2.548 1.292 0 2.452.395 3.299 1.098l-1.16 1.494c-.668-.571-1.56-.835-2.362-.835-.624 0-.892.22-.892.571 0 1.01 4.592.264 4.592 3.251 0 1.625-1.204 2.68-3.388 2.68-1.65 0-2.809-.528-3.611-1.274zm8.203 1.098V20h2.095v7.995H68.28zm3.343-3.997c0-2.548 1.962-4.13 4.414-4.13 1.828 0 2.897.967 3.477 1.933l-1.739.879c-.312-.527-.936-1.01-1.738-1.01-1.338 0-2.274 1.01-2.274 2.328 0 1.317.936 2.328 2.274 2.328.58 0 1.203-.22 1.515-.483v-.615h-1.828v-1.802h3.924v3.207c-.892.967-2.05 1.582-3.611 1.582-2.408-.044-4.414-1.67-4.414-4.217zm15.025 3.997l-3.433-4.612v4.656h-2.096V20h2.14l3.3 4.393V20h2.095v7.995h-2.006zM14.29.67H.38v34.572h14c11.77 0 19.349-6.809 19.349-17.308C33.683 7.435 26.104.67 14.29.67zm-.357 27.632H7.736V8.094h6.286c7.267 0 12.35 2.812 12.35 9.884 0 5.667-4.637 10.323-12.439 10.323z"/><path d="M15.36 13.849h-1.605v8.215h1.604c3.166 0 5.038-1.89 5.038-4.218-.044-2.855-2.095-3.997-5.037-3.997z"/></symbol><symbol viewBox="0 0 18 14" id="mail" xmlns="http://www.w3.org/2000/svg"><path d="M9 9.571L6.773 7.622.406 13.08c.232.215.544.349.889.349h15.41c.344 0 .655-.134.885-.349l-6.363-5.458L9 9.572z"/><path d="M17.594.92a1.295 1.295 0 0 0-.889-.348H1.295a1.29 1.29 0 0 0-.886.35L9 8.287 17.594.92zM0 1.7v10.682l6.214-5.28L0 1.7zm11.786 5.402L18 12.382V1.697l-6.214 5.405z"/></symbol><symbol viewBox="0 0 17 17" id="phone" xmlns="http://www.w3.org/2000/svg"><path d="M16.699 13.173c-.045-.135-.33-.333-.853-.595a26.245 26.245 0 0 0-.606-.337 50.25 50.25 0 0 1-.713-.393c-.213-.12-.413-.236-.6-.348-.03-.022-.124-.088-.281-.196a3.137 3.137 0 0 0-.399-.242.735.735 0 0 0-.32-.078c-.15 0-.336.107-.56.32a5.47 5.47 0 0 0-.618.696c-.187.25-.385.482-.595.696-.21.213-.381.32-.516.32a.763.763 0 0 1-.253-.056c-.1-.038-.177-.07-.23-.096a4.215 4.215 0 0 1-.27-.157 6.949 6.949 0 0 0-.213-.13c-1.025-.568-1.904-1.219-2.637-1.952C6.3 9.89 5.65 9.012 5.082 7.987a6.508 6.508 0 0 0-.13-.213 4.048 4.048 0 0 1-.157-.27 2.431 2.431 0 0 1-.095-.23.76.76 0 0 1-.056-.252c0-.135.107-.307.32-.517.213-.21.445-.408.696-.595.25-.187.482-.392.696-.617.213-.224.32-.411.32-.561a.733.733 0 0 0-.079-.32 3.12 3.12 0 0 0-.241-.399c-.109-.157-.174-.25-.197-.28a24.661 24.661 0 0 1-.348-.6c-.12-.214-.25-.452-.393-.713a26.645 26.645 0 0 0-.336-.606c-.262-.524-.46-.809-.595-.853A.629.629 0 0 0 4.25.927c-.202 0-.466.037-.791.112a4.445 4.445 0 0 0-.77.236c-.373.157-.77.613-1.19 1.37-.38.702-.572 1.398-.572 2.087 0 .202.014.398.04.59.026.19.073.405.14.645.067.239.122.417.163.533.04.116.118.323.23.623.112.299.18.482.202.55.262.733.572 1.388.931 1.964.591.958 1.398 1.948 2.42 2.97 1.02 1.02 2.01 1.827 2.968 2.418.576.36 1.231.67 1.965.932.067.022.25.09.55.202.299.112.507.189.622.23.116.041.294.096.534.163.24.067.454.114.645.14.191.026.388.04.59.04.688 0 1.384-.191 2.087-.573.756-.419 1.212-.815 1.37-1.19.082-.187.16-.443.235-.769.075-.325.112-.589.112-.79a.626.626 0 0 0-.033-.237z"/><defs><clipPath id="hclip0"><path transform="translate(.927 .927)" d="M0 0h15.805v15.805H0z"/></clipPath></defs></symbol><symbol viewBox="0 0 21 21" id="search" xmlns="http://www.w3.org/2000/svg"><path fill-rule="evenodd" clip-rule="evenodd" d="M20.258 17.752l-4.499-4.498c-.024-.024-.052-.04-.077-.063a8.513 8.513 0 1 0-2.433 2.433c.023.025.04.053.063.077l4.499 4.498a1.73 1.73 0 0 0 2.447-2.447zM8.57 14.075a5.562 5.562 0 1 1 0-11.124 5.562 5.562 0 0 1 0 11.123z"/><defs><clipPath id="iclip0"><path transform="translate(.059)" d="M0 0h20.706v20.706H0z"/></clipPath></defs></symbol><symbol viewBox="0 0 22 22" id="user" xmlns="http://www.w3.org/2000/svg"><path d="M11 10.76c2.446 0 4.429-2.41 4.429-5.38 0-2.971-.651-5.38-4.43-5.38-3.777 0-4.428 2.409-4.428 5.38 0 2.97 1.983 5.38 4.429 5.38zm-8.366 8.214c0-.181-.001-.051 0 0zm16.731.141c.003-.05.001-.344 0 0zM19.356 18.756c-.082-5.175-.758-6.65-5.931-7.584 0 0-.728.928-2.425.928-1.697 0-2.426-.928-2.426-.928-5.116.924-5.833 2.377-5.927 7.416-.008.412-.012.433-.013.386v.543S3.867 22 11 22c7.133 0 8.365-2.483 8.365-2.483v-.402c-.001.03-.004-.027-.01-.359z"/><defs><clipPath id="jclip0"><path d="M0 0h22v22H0z"/></clipPath></defs></symbol></svg>