<svg width="64" height="57" viewBox="0 0 64 57" fill="none" xmlns="http://www.w3.org/2000/svg">
<g clip-path="url(#clip0)">
<path d="M52.0548 0H10.3046C7.80226 0 5.76649 2.03578 5.76649 4.53807V18.6841L0.586732 23.8639C0.417008 24.0336 0.320801 24.2651 0.320801 24.5056V56.2721H2.13603V24.8813L5.76649 21.2509V23.598C5.76649 24.099 6.1731 24.5056 6.6741 24.5056H17.4502C17.0463 26.0694 15.6232 27.2284 13.935 27.2284H10.3046C9.80355 27.2284 9.39694 27.635 9.39694 28.136C9.39694 31.1893 7.00447 33.5817 3.95126 33.5817V35.3969C4.58114 35.3969 5.18743 35.3144 5.76649 35.17V48.1035C5.76649 50.6058 7.80226 52.6416 10.3046 52.6416H13.0274V56.2721H14.8426V52.6416H29.3645V54.4568C29.3645 54.6974 29.4598 54.9288 29.6304 55.0985L31.4456 56.9138L32.729 55.6304L31.1797 54.0811V48.4793L32.9949 46.6623V50.8264H34.8101V25.8652C34.8101 25.1155 35.4201 24.5056 36.1734 24.5056C36.9231 24.5056 37.533 25.1155 37.533 25.8652V38.5718V46.2883H39.3482V38.5718C39.3482 37.8221 39.9581 37.2122 40.7114 37.2122C41.4611 37.2122 42.071 37.8221 42.071 38.5718V46.2883H43.8863V38.5718C43.8863 37.8221 44.4962 37.2122 45.2495 37.2122C45.9992 37.2122 46.6091 37.8221 46.6091 38.5718V46.2883H47.5167H48.4243L48.428 38.57C48.428 37.8212 49.0379 37.2113 49.7876 37.2113C50.5373 37.2113 51.1472 37.8212 51.1472 38.5709V56.2721H52.9624V52.5499C55.0309 52.1279 56.5929 50.2945 56.5929 48.1035V4.53807C56.5929 2.03578 54.5571 0 52.0548 0ZM54.7776 48.1035C54.7776 49.2853 54.0162 50.2836 52.9624 50.6594V38.5718C52.9624 36.821 51.5384 35.3969 49.7876 35.3969C48.8981 35.3969 48.0949 35.7673 47.5185 36.359C46.9413 35.7673 46.1372 35.3969 45.2459 35.3969C44.3573 35.3969 43.555 35.7663 42.9787 36.3563C42.4014 35.7663 41.5982 35.3969 40.7078 35.3969C40.2195 35.3969 39.7621 35.5168 39.3482 35.7146V25.8652C39.3482 24.1144 37.9242 22.6904 36.1697 22.6904C34.419 22.6904 32.9949 24.1144 32.9949 25.8652V44.0937L29.6295 47.4619C29.4598 47.6325 29.3645 47.863 29.3645 48.1035V50.8264H10.3046C8.80336 50.8264 7.58171 49.6047 7.58171 48.1035V34.4467C9.52038 33.3476 10.8782 31.3862 11.1586 29.0437H13.935C16.9383 29.0437 19.3807 26.6013 19.3807 23.598C19.3807 23.097 18.9741 22.6904 18.4731 22.6904H7.58171V19.0599V4.53807C7.58171 3.03688 8.80336 1.81523 10.3046 1.81523H52.0548C53.556 1.81523 54.7776 3.03688 54.7776 4.53807V48.1035Z" fill="#F18F35"/>
<path d="M25.734 3.63037H12.1198C11.6188 3.63037 11.2122 4.03698 11.2122 4.53799V9.07606C11.2122 9.57706 11.6188 9.98367 12.1198 9.98367H25.734C26.235 9.98367 26.6416 9.57706 26.6416 9.07606V4.53799C26.6416 4.03698 26.235 3.63037 25.734 3.63037ZM24.8264 8.16844H13.0274V5.4456H24.8264V8.16844Z" fill="#F18F35"/>
<path d="M50.2396 3.63037H36.6254C36.1244 3.63037 35.7178 4.03698 35.7178 4.53799V9.07606C35.7178 9.57706 36.1244 9.98367 36.6254 9.98367H50.2396C50.7406 9.98367 51.1472 9.57706 51.1472 9.07606V4.53799C51.1472 4.03698 50.7406 3.63037 50.2396 3.63037ZM49.332 8.16844H37.533V5.4456H49.332V8.16844Z" fill="#F18F35"/>
<path d="M25.734 30.8589H12.1198C11.6188 30.8589 11.2122 31.2655 11.2122 31.7665V36.3046C11.2122 36.8056 11.6188 37.2122 12.1198 37.2122H25.734C26.235 37.2122 26.6416 36.8056 26.6416 36.3046V31.7665C26.6416 31.2655 26.235 30.8589 25.734 30.8589ZM24.8264 35.397H13.0274V32.6741H24.8264V35.397Z" fill="#F18F35"/>
<path d="M32.0874 3.63037H30.2722V20.875H32.0874V3.63037Z" fill="#F18F35"/>
<path d="M21.1959 11.7988H11.2122V13.6141H21.1959V11.7988Z" fill="#F18F35"/>
<path d="M26.6415 11.7988H23.9187V13.6141H26.6415V11.7988Z" fill="#F18F35"/>
<path d="M21.1959 15.4294H11.2122V17.2447H21.1959V15.4294Z" fill="#F18F35"/>
<path d="M26.6415 15.4294H23.9187V17.2447H26.6415V15.4294Z" fill="#F18F35"/>
<path d="M21.1959 19.0598H11.2122V20.875H21.1959V19.0598Z" fill="#F18F35"/>
<path d="M26.6415 19.0598H23.9187V20.875H26.6415V19.0598Z" fill="#F18F35"/>
<path d="M26.6415 22.6904H23.9187V24.5057H26.6415V22.6904Z" fill="#F18F35"/>
<path d="M26.6415 26.3208H23.9187V28.136H26.6415V26.3208Z" fill="#F18F35"/>
<path d="M21.1959 39.0273H11.2122V40.8426H21.1959V39.0273Z" fill="#F18F35"/>
<path d="M26.6415 39.0273H23.9187V40.8426H26.6415V39.0273Z" fill="#F18F35"/>
<path d="M21.1959 42.658H11.2122V44.4732H21.1959V42.658Z" fill="#F18F35"/>
<path d="M26.6415 42.658H23.9187V44.4732H26.6415V42.658Z" fill="#F18F35"/>
<path d="M21.1959 46.2883H11.2122V48.1036H21.1959V46.2883Z" fill="#F18F35"/>
<path d="M26.6415 46.2883H23.9187V48.1036H26.6415V46.2883Z" fill="#F18F35"/>
<path d="M45.7015 11.7988H35.7178V13.6141H45.7015V11.7988Z" fill="#F18F35"/>
<path d="M51.1472 11.7988H48.4243V13.6141H51.1472V11.7988Z" fill="#F18F35"/>
<path d="M45.7015 15.4294H35.7178V17.2447H45.7015V15.4294Z" fill="#F18F35"/>
<path d="M51.1472 15.4294H48.4243V17.2447H51.1472V15.4294Z" fill="#F18F35"/>
<path d="M45.7015 19.0598H35.7178V20.875H45.7015V19.0598Z" fill="#F18F35"/>
<path d="M51.1472 19.0598H48.4243V20.875H51.1472V19.0598Z" fill="#F18F35"/>
<path d="M45.7014 22.6904H41.1633V24.5057H45.7014V22.6904Z" fill="#F18F35"/>
<path d="M51.1472 22.6904H48.4243V24.5057H51.1472V22.6904Z" fill="#F18F35"/>
<path d="M45.7014 26.3208H41.1633V28.136H45.7014V26.3208Z" fill="#F18F35"/>
<path d="M51.1472 26.3208H48.4243V28.136H51.1472V26.3208Z" fill="#F18F35"/>
<path d="M45.7014 29.9512H41.1633V31.7664H45.7014V29.9512Z" fill="#F18F35"/>
<path d="M51.1472 29.9512H48.4243V31.7664H51.1472V29.9512Z" fill="#F18F35"/>
</g>
<circle cx="45.9487" cy="21.3333" r="18.0513" fill="#123208" fill-opacity="0.16"/>
<defs>
<clipPath id="clip0">
<rect width="56.9138" height="56.9138" fill="white"/>
</clipPath>
</defs>
</svg>
