<svg width="70" height="70" viewBox="0 0 70 70" fill="none" xmlns="http://www.w3.org/2000/svg">
<path d="M63.712 60.8119L56.368 51.3703C58.7477 50.6593 60.8034 49.1374 62.178 47.069C63.9075 44.0795 63.1254 40.431 62.3687 36.9069C61.9111 35.0965 61.6373 33.2446 61.5516 31.3793C61.637 29.5124 61.9107 27.6588 62.3687 25.8469C63.1206 22.3203 63.9075 18.6743 62.178 15.6897C60.387 12.5952 56.7808 11.4498 53.2929 10.3443C51.5566 9.86593 49.8751 9.20741 48.2758 8.37948C46.8245 7.4381 45.477 6.34586 44.2556 5.12086C41.668 2.71914 38.7341 0 34.9999 0C31.2658 0 28.3318 2.71914 25.743 5.11966C24.5221 6.34496 23.1749 7.43765 21.7241 8.37948C20.1249 9.20575 18.4439 9.86261 16.7082 10.3395C13.2203 11.445 9.61406 12.5903 7.82302 15.6848C6.09354 18.6743 6.87561 22.3228 7.63233 25.8469C8.0899 27.6589 8.36326 29.5124 8.4482 31.3793C8.36281 33.2462 8.08914 35.0999 7.63113 36.9117C6.87923 40.4383 6.09233 44.0843 7.82182 47.069C9.19828 49.1382 11.2562 50.6596 13.6379 51.3691L6.28785 60.8107C5.87871 61.3369 5.97361 62.0951 6.49996 62.5043C6.75281 62.7008 7.07324 62.7888 7.39096 62.749L16.0203 61.6712L18.1504 69.125C18.2752 69.5619 18.6349 69.8917 19.081 69.9783C19.1565 69.9926 19.2333 70 19.3103 70C19.6829 70.0003 20.0349 69.8283 20.2637 69.5341L27.971 59.6207C29.8676 61.4671 32.3589 62.5794 34.9999 62.7586C37.6409 62.5794 40.1322 61.4671 42.0289 59.6207L49.7361 69.5305C49.9642 69.8261 50.3162 69.9994 50.6896 70C50.7665 70 50.8433 69.9926 50.9189 69.9783C51.365 69.8917 51.7246 69.5619 51.8494 69.125L53.9796 61.6724L62.6089 62.7502C63.2703 62.8331 63.8737 62.3643 63.9567 61.7029C63.9965 61.3852 63.9086 61.0647 63.712 60.8119ZM19.8172 66.1753L18.0563 60.0129C17.8926 59.4413 17.3368 59.0741 16.7468 59.1476L9.9882 59.9924L16.0456 52.2055L16.713 52.4191C18.447 52.8963 20.1264 53.5532 21.7241 54.3791C23.1754 55.3205 24.5229 56.4128 25.7442 57.6378L26.1594 58.0216L19.8172 66.1753ZM34.9999 60.3448C32.212 60.3448 29.867 58.1724 27.3832 55.8697C26.0319 54.5196 24.5393 53.3192 22.931 52.2888C21.1811 51.3728 19.3391 50.6446 17.436 50.1164C14.2461 49.1038 11.2325 48.1479 9.90975 45.8621C8.64734 43.6788 9.29906 40.6362 9.99061 37.4138C10.4883 35.4376 10.7804 33.4155 10.862 31.3793C10.7808 29.3431 10.4892 27.321 9.99182 25.3448C9.30027 22.1236 8.64854 19.081 9.91096 16.8966C11.2385 14.6107 14.2473 13.6548 17.4372 12.6422C19.34 12.1139 21.1814 11.3857 22.931 10.4698C24.5388 9.43944 26.0312 8.23888 27.382 6.88897C29.867 4.58621 32.212 2.41379 34.9999 2.41379C37.7879 2.41379 40.1329 4.58621 42.6166 6.88897C43.9679 8.23903 45.4605 9.43944 47.0689 10.4698C48.8187 11.3859 50.6608 12.1141 52.5639 12.6422C55.7537 13.6548 58.7673 14.6107 60.0901 16.8966C61.3525 19.0798 60.7008 22.1224 60.0092 25.3448C59.5115 27.321 59.2195 29.3431 59.1379 31.3793C59.219 33.4155 59.5106 35.4376 60.008 37.4138C60.6996 40.635 61.3513 43.6776 60.0889 45.8621C58.7613 48.1479 55.7525 49.1038 52.5627 50.1164C50.6599 50.6447 48.8184 51.3729 47.0689 52.2888C45.461 53.3192 43.9687 54.5197 42.6179 55.8697C40.1329 58.1724 37.7879 60.3448 34.9999 60.3448ZM53.2591 59.1476C52.669 59.0741 52.1133 59.4413 51.9496 60.0129L50.1827 66.1753L43.8416 58.0228L44.2568 57.639C45.4777 56.4137 46.8249 55.321 48.2758 54.3791C49.8749 53.5529 51.556 52.896 53.2916 52.4191L53.9591 52.2055L60.0177 59.9924L53.2591 59.1476Z" fill="#F18F35"/>
<path d="M35 9.65527C23.0021 9.65527 13.2759 19.3815 13.2759 31.3794C13.2759 43.3773 23.0021 53.1035 35 53.1035C46.9979 53.1035 56.7242 43.3773 56.7242 31.3794C56.7103 19.3872 46.9922 9.6693 35 9.65527ZM35 50.6898C24.3353 50.6898 15.6897 42.0442 15.6897 31.3794C15.6897 20.7147 24.3353 12.0691 35 12.0691C45.6648 12.0691 54.3104 20.7147 54.3104 31.3794C54.2977 42.039 45.6596 50.6771 35 50.6898Z" fill="#F18F35"/>
<path d="M48.9252 26.338C48.4711 25.7141 47.7464 25.345 46.9749 25.3447H39.5863L37.2932 18.3121C36.8769 17.0456 35.5128 16.3565 34.2463 16.7727C33.5178 17.0121 32.9464 17.5836 32.707 18.3121L30.4199 25.3447H23.0252C21.6921 25.3441 20.6108 26.4241 20.6102 27.7573C20.6098 28.5297 20.9791 29.2555 21.6035 29.71L27.5849 34.0548L25.3002 41.0874C24.8881 42.3553 25.5819 43.7171 26.8496 44.1291C27.5847 44.3681 28.3897 44.2404 29.0151 43.786L35.0001 39.4424L40.9826 43.7873C41.8254 44.4133 42.9785 44.4133 43.8213 43.7873C44.6765 43.1794 45.0325 42.083 44.6975 41.0886L42.4128 34.0548L48.3942 29.71C49.4721 28.9255 49.7099 27.4157 48.9252 26.338ZM40.2838 32.6186C39.8605 32.9263 39.6836 33.4716 39.8457 33.9692L42.4019 41.8357L35.7097 36.9743C35.2868 36.6673 34.7145 36.6673 34.2916 36.9743L27.5994 41.8357L30.1544 33.9692C30.3159 33.4719 30.1391 32.9273 29.7163 32.6198L23.0252 27.7585H31.2961C31.819 27.7585 32.2823 27.4217 32.4438 26.9245L35.0001 19.058L37.5563 26.9233C37.7178 27.4205 38.1811 27.7573 38.704 27.7573L46.9749 27.7585L40.2838 32.6186Z" fill="#F18F35"/>
<ellipse cx="49" cy="26.5" rx="21" ry="21.5" fill="#123208" fill-opacity="0.16"/>
</svg>
