<svg width="76" height="70" viewBox="0 0 76 70" fill="none" xmlns="http://www.w3.org/2000/svg">
<g clip-path="url(#clip0)">
<path d="M20.734 30.3698L20.7315 30.4143C20.559 33.4351 22.2511 36.265 25.0435 37.6217L25.0721 37.6357C26.0566 38.1067 26.8635 38.883 27.3725 39.8484L27.384 39.8694C28.791 42.5484 31.7011 44.1724 34.8033 44.0095L34.8504 44.007C35.9755 43.944 37.0923 44.2342 38.0443 44.8374C40.6712 46.4805 44.0057 46.4805 46.6326 44.8374C47.5846 44.2342 48.7014 43.944 49.8265 44.007L49.8736 44.0095C52.9708 44.1737 55.8846 42.5484 57.2948 39.8649L57.3018 39.8503C57.8128 38.8824 58.6216 38.1047 59.6093 37.6332L59.6322 37.6217C62.4245 36.2644 64.1172 33.4351 63.9441 30.4137L63.9416 30.3717C63.8843 29.3077 64.1796 28.2545 64.7829 27.3757C66.5195 24.843 66.5195 21.5034 64.7835 18.97C64.1809 18.0919 63.8843 17.0393 63.9416 15.9753L63.9441 15.9308C64.1172 12.9094 62.4245 10.0801 59.6296 8.72211L59.6042 8.70938C58.6216 8.23975 57.8166 7.46721 57.3069 6.5044L57.2923 6.47576C55.8846 3.79669 52.9708 2.17333 49.8736 2.33561L49.8259 2.33815C48.7014 2.40115 47.5846 2.11097 46.6332 1.5077H46.632C44.0051 -0.13538 40.6706 -0.13538 38.0437 1.5077C37.0917 2.11033 35.9749 2.40051 34.8498 2.33751L34.8027 2.33497C31.7049 2.17079 28.7916 3.79605 27.3846 6.47449L27.3738 6.49422C26.8641 7.46148 26.0566 8.23848 25.0708 8.71002L25.0441 8.72275C22.2518 10.0795 20.559 12.9094 20.7321 15.9308L20.7347 15.9728C20.792 17.0368 20.4967 18.09 19.8934 18.9681C18.1568 21.5015 18.1568 24.8417 19.8934 27.3744C20.496 28.2526 20.792 29.3058 20.734 30.3698ZM22.0386 20.4483C22.9696 19.0929 23.4258 17.4676 23.3368 15.8258L23.3342 15.7812C23.2426 13.7793 24.3664 11.9198 26.1806 11.069L26.2029 11.0582C27.6914 10.3455 28.91 9.17202 29.6787 7.71221L29.6914 7.68803C30.6263 5.90749 32.5843 4.82823 34.664 4.93895L34.7098 4.94086C36.3739 5.03441 38.0252 4.6055 39.4328 3.71332C41.2102 2.6016 43.4654 2.6016 45.2428 3.71332C46.6504 4.60423 48.3018 5.03377 49.9652 4.9415L50.011 4.93895C52.1008 4.8295 54.0494 5.90749 54.9816 7.68293L54.9988 7.71539C55.7676 9.17329 56.9849 10.3448 58.4714 11.0569L58.4931 11.0677C60.336 11.9637 61.4547 13.8136 61.3421 15.7819L61.3395 15.8283C61.2504 17.4701 61.7073 19.0948 62.6383 20.4502C63.7634 22.0914 63.7628 24.255 62.6371 25.8955C61.7067 27.2516 61.2504 28.8769 61.3395 30.5187L61.3421 30.5626C61.4547 32.5309 60.336 34.3814 58.4924 35.278L58.4734 35.2869C56.9836 36.0009 55.7637 37.1757 54.9944 38.638L54.9848 38.6571C54.0494 40.4376 52.0945 41.5175 50.0117 41.4062L49.9665 41.4036C48.3024 41.3107 46.6504 41.7403 45.2422 42.6318C43.4654 43.7429 41.2102 43.7429 39.4335 42.6318C38.1531 41.8204 36.6679 41.3903 35.152 41.3915C35.005 41.3915 34.8574 41.3954 34.7098 41.4036L34.664 41.4055C32.6117 41.536 30.6702 40.4618 29.6895 38.6539L29.6762 38.6291C28.9087 37.1718 27.692 36.0009 26.2061 35.2889L26.1819 35.2768C24.3384 34.3808 23.2197 32.5302 23.3329 30.5626L23.3355 30.5162C23.4239 28.8743 22.967 27.2491 22.0367 25.8943C20.9122 24.2531 20.9129 22.0895 22.0386 20.4496V20.4483Z" fill="#F18F35"/>
<path d="M33.9288 36.6458C34.5391 37.0269 35.3428 36.8405 35.724 36.2302L51.1627 11.4975C51.4147 11.1023 51.4357 10.6021 51.2168 10.1878C50.9979 9.77292 50.5728 9.50819 50.1044 9.49356C49.6361 9.47892 49.1957 9.71692 48.9513 10.1172L33.5133 34.85C33.1321 35.4609 33.3179 36.2646 33.9288 36.6458Z" fill="#F18F35"/>
<path d="M35.3122 23.237C38.4858 23.237 41.0681 20.2926 41.0681 16.6736C41.0681 13.0546 38.4858 10.1108 35.3122 10.1108C32.1387 10.1108 29.557 13.0546 29.557 16.6736C29.557 20.2926 32.1387 23.237 35.3122 23.237ZM35.3122 12.7174C37.0489 12.7174 38.4616 14.4922 38.4616 16.6736C38.4616 18.8551 37.0489 20.6305 35.3122 20.6305C33.5763 20.6305 32.1635 18.8544 32.1635 16.6736C32.1635 14.4928 33.5763 12.7174 35.3122 12.7174Z" fill="#F18F35"/>
<path d="M43.6078 29.6731C43.6078 33.2921 46.1895 36.2359 49.363 36.2359C52.5366 36.2359 55.1189 33.2915 55.1189 29.6731C55.1189 26.0554 52.5372 23.1104 49.3637 23.1104C46.1895 23.1104 43.6078 26.0535 43.6078 29.6731ZM52.5124 29.6731C52.5124 31.8546 51.0997 33.6294 49.363 33.6294C47.627 33.6294 46.2143 31.8546 46.2143 29.6731C46.2143 27.4917 47.627 25.7169 49.363 25.7169C51.0997 25.7169 52.5124 27.4904 52.5124 29.6731Z" fill="#F18F35"/>
<path d="M69.831 51.3143C68.1052 48.2515 64.2781 47.085 61.1377 48.6645L50.9286 53.4881C49.5191 50.8669 46.8152 49.1984 43.8395 49.1144L34.4151 48.8548C32.9228 48.8121 31.4585 48.4335 30.1317 47.7488L29.1727 47.2518C24.2626 44.6923 18.41 44.6987 13.5049 47.2683L13.5647 45.0958C13.5845 44.3761 13.0175 43.7766 12.2978 43.7569L1.96328 43.4724C1.24355 43.4527 0.644739 44.0197 0.625012 44.7394L0.000743684 67.4186C-0.0189835 68.1384 0.548013 68.7378 1.26774 68.7575L11.6022 69.042H11.6385C12.3442 69.0414 12.9214 68.4795 12.9411 67.7744L12.9704 66.6894L15.6552 65.2518C16.709 64.6848 17.9416 64.5499 19.0928 64.8758L35.1246 69.3755C35.1526 69.3837 35.1806 69.3901 35.2092 69.3965C36.3681 69.6389 37.5491 69.7604 38.7334 69.7598C41.2407 69.7611 43.7186 69.2208 45.9974 68.1746C46.0534 68.1492 46.1075 68.1199 46.1591 68.0868L69.404 53.0503C69.9837 52.6761 70.1708 51.9144 69.831 51.3143ZM2.64227 66.1873L3.19463 46.1146L10.9239 46.3271L10.3709 66.4005L2.64227 66.1873ZM44.8227 65.8456C41.9916 67.1234 38.8295 67.4759 35.7864 66.8536L19.7973 62.3666C17.9983 61.8575 16.0714 62.0688 14.4251 62.9539L13.0531 63.6883L13.4209 50.3419C17.7679 47.4503 23.3437 47.1531 27.9738 49.5656L28.9328 50.0626C30.609 50.928 32.4583 51.4059 34.3438 51.46L43.7683 51.7196C46.4155 51.7954 48.6638 53.6803 49.2009 56.2741L35.1628 55.8878C34.4431 55.8681 33.8442 56.4351 33.8245 57.1548C33.8048 57.8745 34.3718 58.474 35.0915 58.4937L50.5837 58.9201H50.6206C51.3257 58.9194 51.9029 58.3575 51.9226 57.6524C51.9385 57.0861 51.8959 56.5191 51.7966 55.9616L62.266 51.0139L62.2965 50.9993C63.7818 50.2471 65.5782 50.4985 66.7994 51.6293L44.8227 65.8456Z" fill="#F18F35"/>
</g>
<circle cx="54.5" cy="26.5" r="21.5" fill="#123208" fill-opacity="0.16"/>
<defs>
<clipPath id="clip0">
<rect width="70" height="70" fill="white"/>
</clipPath>
</defs>
</svg>
