<svg width="74" height="65" viewBox="0 0 74 65" fill="none" xmlns="http://www.w3.org/2000/svg">
<circle cx="52.5" cy="24.5" r="21.5" fill="#123208" fill-opacity="0.16"/>
<path d="M20.5912 36.8517C18.859 36.8517 17.4516 35.5526 17.3433 33.8204C21.4573 32.0882 23.9473 27.9743 23.839 23.5356C23.839 23.319 23.839 22.886 23.839 22.7777C23.839 17.3646 19.5086 13.0342 14.0955 13.0342H1.1041C0.454531 13.0342 0.0214844 13.4672 0.0214844 14.1168C0.0214844 16.6068 0.995839 18.9886 2.61976 20.7208C2.40324 21.8034 2.18672 22.7777 2.18672 23.8603C2.18672 28.1908 4.78499 32.0882 8.68241 33.8204C8.57415 35.5526 7.16675 36.8517 5.43456 36.8517C2.40324 36.8517 0.0214844 39.2335 0.0214844 42.2648V63.9171C0.0214844 64.5667 0.454531 64.9997 1.1041 64.9997H24.9217C25.5712 64.9997 26.0043 64.5667 26.0043 63.9171V42.2648C26.0043 39.2335 23.6225 36.8517 20.5912 36.8517ZM2.29498 15.1994H14.0955C17.8846 15.1994 21.0242 18.0142 21.5655 21.6951H9.76503C5.97587 21.6951 2.83629 18.8803 2.29498 15.1994ZM4.35195 23.8603C4.35195 23.319 4.35195 22.7777 4.46021 22.3447C6.08413 23.319 7.92458 23.8603 9.76503 23.8603H21.6738C21.6738 27.5412 19.4003 30.7891 15.9359 31.98C15.5029 32.0882 15.1781 32.5213 15.1781 32.9543V33.6039C15.1781 35.0113 15.7194 36.4187 16.802 37.5013L13.9872 37.9343H12.0385L9.22372 37.5013C10.3063 36.5269 10.8476 35.1195 10.8476 33.6039V33.0626C10.8476 32.6295 10.5229 32.1965 10.0898 32.0882C6.62544 30.7891 4.35195 27.5412 4.35195 23.8603ZM15.1781 52.7662L13.0129 54.8232L10.9559 52.7662L12.9046 40.0996H13.2294L15.1781 52.7662ZM2.18672 42.2648C2.18672 40.5326 3.59412 39.017 5.3263 39.017L10.6311 39.8831L8.57415 52.8744C8.57415 53.1992 8.68241 53.524 8.89894 53.8488L12.1468 57.0966C12.5798 57.5297 13.2294 57.5297 13.6624 57.0966L16.9103 53.8488C17.1268 53.6323 17.2351 53.3075 17.2351 52.8744L15.1781 39.8831L20.4829 39.017C22.2151 39.017 23.6225 40.5326 23.6225 42.2648V58.504H2.18672V42.2648ZM23.839 62.8345H2.18672V60.6693H23.839V62.8345Z" fill="#F18F35"/>
<path d="M60.6482 8.7039H55.7764L54.5855 6.86346C54.0442 5.99736 52.9616 5.45606 51.879 5.45606H49.4973C48.9559 5.45606 48.5229 5.13127 48.4146 4.58996C47.332 1.12559 43.7594 -0.714857 40.295 0.259498C38.238 0.909068 36.6141 2.53299 35.9646 4.58996C35.8563 5.02301 35.4232 5.45606 34.8819 5.45606H32.5002C31.4176 5.45606 30.4432 5.99736 29.7936 6.86346L28.711 8.7039H23.8393C21.4575 8.7039 19.5088 10.6526 19.5088 13.0344H21.674C21.674 11.8435 22.6484 10.8691 23.8393 10.8691H27.3036C26.6541 11.8435 27.0871 13.2509 28.0615 13.7922C28.3862 14.0087 28.8193 14.117 29.1441 14.117H55.4516C56.6425 14.117 57.6169 13.1426 57.6169 11.9518C57.6169 11.5187 57.5086 11.1939 57.2921 10.8691H60.6482C61.8391 10.8691 62.8134 11.8435 62.8134 13.0344V60.6695C62.8134 61.8604 61.8391 62.8347 60.6482 62.8347H28.1697V64.9999H60.6482C63.03 64.9999 64.9787 63.0512 64.9787 60.6695V13.0344C64.9787 10.6526 63.03 8.7039 60.6482 8.7039ZM29.1441 11.9518L31.6341 8.05433C31.8506 7.83781 32.1754 7.62129 32.6084 7.62129H34.9902C36.3976 7.62129 37.6967 6.64693 38.1298 5.23953C38.8876 2.96604 41.2694 1.6669 43.5429 2.42473C44.9503 2.85778 45.9246 3.94039 46.3577 5.23953C46.7907 6.64693 48.0899 7.62129 49.4973 7.62129H51.879C52.2038 7.62129 52.5286 7.83781 52.7451 8.05433L55.3434 11.9518H29.1441Z" fill="#F18F35"/>
<path d="M43.3261 4.37354H41.1609V6.53877H43.3261V4.37354Z" fill="#F18F35"/>
<path d="M37.5883 26.7837L36.0726 25.2681L33.5826 27.7581L31.0926 25.2681L29.5769 26.7837L32.0669 29.2737L29.5769 31.7638L31.0926 33.2794L33.5826 30.7894L36.0726 33.2794L37.5883 31.7638L35.0983 29.2737L37.5883 26.7837Z" fill="#F18F35"/>
<path d="M49.497 48.4358L47.9813 46.9202L45.4913 49.4102L43.0013 46.9202L41.4856 48.4358L43.9756 50.9258L41.4856 53.4159L43.0013 54.9315L45.4913 52.4415L47.9813 54.9315L49.497 53.4159L47.0069 50.9258L49.497 48.4358Z" fill="#F18F35"/>
<path d="M50.5797 30.681C50.1467 30.2479 49.4971 30.2479 49.0641 30.681L44.7336 35.0114L46.2493 36.5271L48.7393 34.0371V36.3106C48.7393 39.0171 46.5741 41.1824 43.8675 41.1824C39.9701 41.1824 36.8305 44.3219 36.8305 48.2194V49.302C36.8305 52.0085 34.6653 54.1737 31.9587 54.1737H29.2522V56.339H31.9587C35.8562 56.339 38.9957 53.1994 38.9957 49.302V48.2194C38.9957 45.5128 41.161 43.3476 43.8675 43.3476C47.7649 43.3476 50.9045 40.208 50.9045 36.3106V34.0371L53.3945 36.5271L54.9102 35.0114L50.5797 30.681Z" fill="#F18F35"/>
<path d="M57.0755 18.231L55.5598 16.6071L54.1524 18.0145C51.5541 15.6327 47.4402 15.8493 45.0584 18.5558C42.6767 21.2623 42.8932 25.268 45.5997 27.6498C48.3063 30.0315 52.312 29.815 54.6937 27.1085C56.5342 25.0515 56.8589 22.1284 55.5598 19.7467L57.0755 18.231ZM49.8219 27.1085C47.4402 27.1085 45.4915 25.1598 45.4915 22.778C45.4915 20.3962 47.4402 18.4475 49.8219 18.4475C50.9046 18.4475 51.8789 18.8806 52.6367 19.5302L49.8219 22.345L48.4145 20.9376L46.8989 22.4532L49.0641 24.6184C49.4972 25.0515 50.1467 25.0515 50.5798 24.6184L53.8276 21.3706C54.0441 21.8036 54.1524 22.2367 54.1524 22.778C54.1524 25.1598 52.2037 27.1085 49.8219 27.1085Z" fill="#F18F35"/>
<path d="M20.5911 44.4302H17.3433V46.5954H20.5911V44.4302Z" fill="#F18F35"/>
<path d="M58.4829 14.1169V58.5042H28.1697V60.6694H59.5656C60.2151 60.6694 60.6482 60.2364 60.6482 59.5868V14.1169H58.4829Z" fill="#F18F35"/>
</svg>
