<svg width="73" height="70" viewBox="0 0 73 70" fill="none" xmlns="http://www.w3.org/2000/svg">
<path d="M35.232 4.71826C25.3378 4.71826 17.2874 12.7687 17.2874 22.663C17.2874 32.5572 25.3378 40.6077 35.232 40.6077C45.1263 40.6077 53.1767 32.5572 53.1767 22.663C53.1767 12.7687 45.1263 4.71826 35.232 4.71826ZM35.232 38.3646C26.5737 38.3646 19.5304 31.3213 19.5304 22.663C19.5304 14.0046 26.5737 6.96135 35.232 6.96135C43.8904 6.96135 50.9337 14.0046 50.9337 22.663C50.9337 31.3213 43.8904 38.3646 35.232 38.3646Z" fill="#F18F35"/>
<path d="M51.591 0.232178L56.0772 4.71835L52.4669 8.3286C48.3486 3.38596 42.1532 0.232178 35.2322 0.232178C22.8638 0.232178 12.8013 10.2947 12.8013 22.663C12.8013 29.5841 15.9551 35.7795 20.8977 39.8978L19.5306 41.2649L16.1659 37.9003L0 54.0662L9.43666 63.5029L17.2875 55.6521L21.7736 60.1383L28.5029 53.409V63.0386C28.5029 66.7498 31.521 69.7678 35.2322 69.7678C38.9433 69.7678 41.9614 66.7498 41.9614 63.0386V49.5801H44.2045V47.337H41.9614V44.0598C50.5401 41.3558 56.8892 33.6216 57.5789 24.3341L66.0746 15.8384L70 19.7638V0.232178H51.591ZM28.5029 47.337H26.2598V49.5801H28.5029V50.2373L21.7736 56.9666L17.2875 52.4804L9.43666 60.3312L3.17172 54.0662L16.1659 41.072L19.5306 44.4367L22.7056 41.2616C24.4754 42.4572 26.4247 43.4049 28.5029 44.0598V47.337ZM39.7183 63.0386C39.7183 65.5127 37.7063 67.5248 35.2322 67.5248C32.758 67.5248 30.746 65.5127 30.746 63.0386V49.5801H39.7183V63.0386ZM39.7183 47.337H30.746V44.6419C32.1961 44.9369 33.6956 45.0939 35.2322 45.0939C36.7687 45.0939 38.2682 44.9369 39.7183 44.6419V47.337ZM35.2322 42.8508C24.1008 42.8508 15.0444 33.7944 15.0444 22.663C15.0444 11.5317 24.1008 2.47526 35.2322 2.47526C46.3635 2.47526 55.4199 11.5317 55.4199 22.663C55.4199 33.7944 46.3635 42.8508 35.2322 42.8508ZM67.7569 14.3479L66.0746 12.6656L57.5868 21.1534C57.3142 17.0946 55.9841 13.3228 53.8307 10.1365L59.2489 4.71835L57.0058 2.47526H67.7569V14.3479Z" fill="#F18F35"/>
<path d="M35.2322 15.4806C32.6179 13.1041 28.5545 13.1758 26.0277 15.7015C23.4257 18.3024 23.4257 22.5374 26.0277 25.1382L35.2322 34.3427L44.4367 25.1382C47.0387 22.5374 47.0387 18.3024 44.4367 15.7015C41.9098 13.1747 37.8476 13.1029 35.2322 15.4806ZM42.8508 23.5523L35.2322 31.171L27.6135 23.5523C25.8863 21.8252 25.8863 19.0146 27.6135 17.2874C28.4782 16.4238 29.611 15.992 30.746 15.992C31.881 15.992 33.0138 16.4249 33.8785 17.2874L35.2322 18.6411L36.5859 17.2874C38.3142 15.5614 41.1225 15.5614 42.8508 17.2874C44.578 19.0146 44.578 21.8252 42.8508 23.5523Z" fill="#F18F35"/>
<path d="M58.7845 39.4863C52.6003 39.4863 47.5691 44.5176 47.5691 50.7018C47.5691 56.886 52.6003 61.9172 58.7845 61.9172C64.9687 61.9172 70 56.886 70 50.7018C70 44.5176 64.9687 39.4863 58.7845 39.4863ZM58.7845 59.6741C53.8374 59.6741 49.8122 55.6489 49.8122 50.7018C49.8122 45.7546 53.8374 41.7294 58.7845 41.7294C63.7316 41.7294 67.7569 45.7546 67.7569 50.7018C67.7569 55.6489 63.7316 59.6741 58.7845 59.6741Z" fill="#F18F35"/>
<path d="M57.663 47.337H59.9061C60.5251 47.337 61.0276 47.8395 61.0276 48.4586H63.2707C63.2707 46.6035 61.7611 45.0939 59.9061 45.0939V42.8508H57.663V45.0939C55.8079 45.0939 54.2983 46.6035 54.2983 48.4586C54.2983 50.3136 55.8079 51.8232 57.663 51.8232H59.9061C60.5251 51.8232 61.0276 52.3256 61.0276 52.9447C61.0276 53.5638 60.5251 54.0663 59.9061 54.0663H57.663C57.0439 54.0663 56.5414 53.5638 56.5414 52.9447H54.2983C54.2983 54.7998 55.8079 56.3094 57.663 56.3094V58.5525H59.9061V56.3094C61.7611 56.3094 63.2707 54.7998 63.2707 52.9447C63.2707 51.0897 61.7611 49.5801 59.9061 49.5801H57.663C57.0439 49.5801 56.5414 49.0776 56.5414 48.4586C56.5414 47.8395 57.0439 47.337 57.663 47.337Z" fill="#F18F35"/>
<circle cx="51.2403" cy="25.971" r="21.7596" fill="#123208" fill-opacity="0.16"/>
</svg>
