<svg width="77" height="69" viewBox="0 0 77 69" fill="none" xmlns="http://www.w3.org/2000/svg">
<g clip-path="url(#clip0)">
<path d="M29.8737 21.8914C27.9733 21.8914 26.4268 23.4379 26.4268 25.3383H28.7247C28.7247 24.7052 29.2395 24.1893 29.8737 24.1893C30.508 24.1893 31.0227 24.7052 31.0227 25.3383H33.3207C33.3207 23.4379 31.7742 21.8914 29.8737 21.8914Z" fill="#F18F35"/>
<path d="M39.0656 21.8914C37.1652 21.8914 35.6187 23.4379 35.6187 25.3383H37.9166C37.9166 24.7052 38.4314 24.1893 39.0656 24.1893C39.6999 24.1893 40.2146 24.7052 40.2146 25.3383H42.5126C42.5126 23.4379 40.9661 21.8914 39.0656 21.8914Z" fill="#F18F35"/>
<path d="M34.4697 52.9141C31.9351 52.9141 29.8738 54.9753 29.8738 57.51C29.8738 60.0447 31.9351 62.106 34.4697 62.106C37.0044 62.106 39.0657 60.0447 39.0657 57.51C39.0657 54.9753 37.0044 52.9141 34.4697 52.9141ZM34.4697 59.808C33.2024 59.808 32.1718 58.7774 32.1718 57.51C32.1718 56.2427 33.2024 55.212 34.4697 55.212C35.7371 55.212 36.7677 56.2427 36.7677 57.51C36.7677 58.7774 35.7371 59.808 34.4697 59.808Z" fill="#F18F35"/>
<path d="M62.0455 66.702V51.7651C62.0455 42.2618 54.3139 34.5302 44.8106 34.5302H43.5594C43.9684 34.1706 44.3533 33.7868 44.7175 33.3813H45.9596C49.1274 33.3813 51.7045 30.8041 51.7045 27.6363V25.6118C53.0891 24.6834 54.0025 23.1047 54.0025 21.3169C54.0025 19.5221 53.0822 17.9411 51.6908 17.0139C51.5379 7.64158 43.8788 0.0605469 34.4697 0.0605469C25.0606 0.0605469 17.4015 7.64158 17.2486 17.0139C15.8572 17.9411 14.9369 19.5221 14.9369 21.3169C14.9369 24.1675 17.2567 26.4873 20.1073 26.4873H20.8898C21.4275 29.6712 23.0545 32.4827 25.3812 34.5302H24.1288C14.6255 34.5302 6.89394 42.2618 6.89394 51.7651V66.702H0V68.9999H8.04293H13.7879H55.1515H60.8965H68.9394V66.702H62.0455ZM49.4066 27.6363C49.4066 29.3793 48.1013 30.8087 46.4203 31.0362C47.2166 29.6516 47.775 28.1177 48.0496 26.4873H48.8321C49.0285 26.4873 49.2158 26.4505 49.4066 26.4287V27.6363ZM51.7045 21.3169C51.7045 22.9002 50.4165 24.1893 48.8321 24.1893H48.2576V18.4444H48.8321C50.4165 18.4444 51.7045 19.7336 51.7045 21.3169ZM20.6818 24.1893H20.1073C18.5229 24.1893 17.2348 22.9002 17.2348 21.3169C17.2348 19.7336 18.5229 18.4444 20.1073 18.4444H20.6818V24.1893ZM20.1073 16.1464C19.9292 16.1464 19.7615 16.1809 19.588 16.1993C20.1533 8.4746 26.6037 2.35853 34.4697 2.35853C42.3357 2.35853 48.7861 8.4746 49.3514 16.1993C49.1779 16.1809 49.0102 16.1464 48.8321 16.1464H48.0496C46.9512 9.63623 41.2878 4.65651 34.4697 4.65651C27.6516 4.65651 21.9882 9.63623 20.8898 16.1464H20.1073ZM45.9584 18.4157C37.6662 18.1238 32.1717 14.7331 32.1717 11.5504C32.1717 10.9162 31.6581 10.4015 31.0227 10.4015C30.3873 10.4015 29.8737 10.9162 29.8737 11.5504C29.8737 14.4218 26.9047 16.8013 23.0464 17.223C23.6589 11.4597 28.5478 6.95449 34.4697 6.95449C40.7949 6.95449 45.9424 12.0939 45.9584 18.4157ZM22.9798 24.1893V19.529C26.5681 19.2177 29.6129 17.4873 31.133 15.0641C33.5367 18.2491 39.1541 20.4907 45.9596 20.7194V24.1893C45.9596 26.778 45.0887 29.1599 43.6398 31.0833H34.4697V33.3813H41.3338C40.6742 33.8753 39.963 34.3004 39.2047 34.6451C36.1897 36.0147 32.7485 36.0147 29.7324 34.6451C25.7569 32.8366 22.9798 28.8358 22.9798 24.1893ZM30.9182 37.4969C32.0534 37.8003 33.2403 37.9772 34.4697 37.9772C35.6991 37.9772 36.886 37.8003 38.0212 37.4969L34.4697 44.6L30.9182 37.4969ZM32.6106 46.0201H30.5838L25.9879 36.8282H28.0147L32.6106 46.0201ZM40.9247 36.8282H42.9515L38.3556 46.0201H36.3288L40.9247 36.8282ZM12.6389 51.7651V66.702H9.19192V51.7651C9.19192 43.7624 15.5229 37.2292 23.4359 36.8638L28.0147 46.0201H18.3838C15.2161 46.0201 12.6389 48.5973 12.6389 51.7651ZM54.0025 66.702H14.9369V51.7651C14.9369 49.8647 16.4834 48.3181 18.3838 48.3181H29.8737H34.4697H39.0657H50.5556C52.456 48.3181 54.0025 49.8647 54.0025 51.7651V66.702ZM59.7475 66.702H56.3005V51.7651C56.3005 48.5973 53.7233 46.0201 50.5556 46.0201H40.9247L45.5034 36.8638C53.4165 37.2292 59.7475 43.7624 59.7475 51.7651V66.702Z" fill="#F18F35"/>
<path d="M51.7045 56.3611H49.4065V64.404H51.7045V56.3611Z" fill="#F18F35"/>
<path d="M51.7045 51.7651H49.4065V54.0631H51.7045V51.7651Z" fill="#F18F35"/>
<path d="M62.0455 10.4014H59.7476V12.6993H62.0455V10.4014Z" fill="#F18F35"/>
<path d="M62.0455 14.9976H59.7476V17.2955H62.0455V14.9976Z" fill="#F18F35"/>
<path d="M62.0455 19.5933H59.7476V21.8912H62.0455V19.5933Z" fill="#F18F35"/>
<path d="M9.19202 24.1895H6.89404V26.4874H9.19202V24.1895Z" fill="#F18F35"/>
<path d="M9.19202 28.7852H6.89404V31.0831H9.19202V28.7852Z" fill="#F18F35"/>
<path d="M9.19202 33.3813H6.89404V35.6793H9.19202V33.3813Z" fill="#F18F35"/>
</g>
<circle cx="55.5" cy="25.5" r="21.5" fill="#123208" fill-opacity="0.16"/>
<defs>
<clipPath id="clip0">
<rect width="68.9394" height="68.9394" fill="white" transform="translate(0 0.0605469)"/>
</clipPath>
</defs>
</svg>
