<svg width="78" height="61" viewBox="0 0 78 61" fill="none" xmlns="http://www.w3.org/2000/svg">
<g clip-path="url(#clip0)">
<g clip-path="url(#clip1)">
<path d="M8.06886 58.7479C7.71829 59.249 7.22793 59.6248 6.59783 59.8753C5.97247 60.1211 5.24287 60.244 4.40907 60.244C3.56576 60.244 2.81721 60.0479 2.16343 59.6555C1.50964 59.2585 1.00271 58.6959 0.642653 57.968C0.287333 57.24 0.104934 56.3963 0.095459 55.4367V54.5362C0.095459 52.981 0.457887 51.7756 1.18274 50.92C1.91233 50.0644 2.93565 49.6367 4.25272 49.6367C5.33288 49.6367 6.20226 49.9132 6.86077 50.4662C7.5193 51.0146 7.92199 51.7945 8.06886 52.8061H6.70444C6.4486 51.44 5.63373 50.757 4.25981 50.757C3.34546 50.757 2.6514 51.0784 2.17764 51.7213C1.70862 52.3594 1.47174 53.2859 1.467 54.5007V55.3445C1.467 56.5026 1.7323 57.4244 2.26293 58.1098C2.79354 58.7905 3.51129 59.1308 4.41616 59.1308C4.92783 59.1308 5.37553 59.0741 5.75927 58.9607C6.14302 58.8472 6.46044 58.6558 6.71154 58.3863V56.0677H4.31667V54.9616H8.06886V58.7479Z" fill="white"/>
<path d="M14.9499 55.926H12.5195V60.1023H11.1479V49.7785H14.5732C15.7387 49.7785 16.6341 50.0432 17.2595 50.5726C17.8896 51.1021 18.2046 51.8726 18.2046 52.8841C18.2046 53.527 18.0293 54.0872 17.6787 54.5646C17.3329 55.042 16.8497 55.3989 16.229 55.6353L18.6594 60.0172V60.1023H17.1955L14.9499 55.926ZM12.5195 54.8128H14.6159C15.2934 54.8128 15.8311 54.6379 16.229 54.2881C16.6317 53.9383 16.8331 53.4703 16.8331 52.8841C16.8331 52.246 16.6412 51.7567 16.2575 51.4164C15.8785 51.0761 15.3289 50.9035 14.6088 50.8988H12.5195V54.8128Z" fill="white"/>
<path d="M25.8657 55.3304H21.3815V58.9891H26.5906V60.1023H20.0171V49.7785H26.5194V50.8988H21.3815V54.2172H25.8657V55.3304Z" fill="white"/>
<path d="M33.6074 55.3304H29.1232V58.9891H34.3323V60.1023H27.7588V49.7785H34.2611V50.8988H29.1232V54.2172H33.6074V55.3304Z" fill="white"/>
<path d="M43.4522 60.1023H42.0807L36.8716 52.1467V60.1023H35.5001V49.7785H36.8716L42.0949 57.7695V49.7785H43.4522V60.1023Z" fill="white"/>
<path d="M51.4677 58.9891H56.371V60.1023H50.0962V49.7785H51.4677V58.9891Z" fill="#A6A6A6"/>
<path d="M58.6761 60.1023H57.3115V49.7785H58.6761V60.1023Z" fill="#A6A6A6"/>
<path d="M69.6755 60.1023H68.304L63.0951 52.1467V60.1023H61.7234V49.7785H63.0951L68.3182 57.7695V49.7785H69.6755V60.1023Z" fill="#A6A6A6"/>
<path d="M78.9228 55.3304H74.4387V58.9891H79.6477V60.1023H73.0743V49.7785H79.5767V50.8988H74.4387V54.2172H78.9228V55.3304Z" fill="#A6A6A6"/>
</g>
<path d="M29.2461 17.6694L21.8047 13.391L21.8591 28.2413L27.8769 31.6778L27.8736 27.3751L25.5161 26.0462C25.5843 24.3867 25.4154 22.028 25.4795 20.3685L29.2469 17.6694H29.2461ZM16.3594 4.85451L15.9095 30.1625L33.219 39.9914L33.2133 25.2902L26.519 21.3724L26.515 25.4952L28.8831 26.786L28.9099 33.3835C26.4898 31.9363 23.165 30.1731 20.7441 28.7267C20.7635 23.3658 20.7327 16.8534 20.7441 11.4925C23.6206 13.3942 30.271 16.8858 33.2109 18.8143L33.2092 14.6753L16.3594 4.85451ZM27.0185 20.4827L33.2125 24.0918L33.2109 19.986L30.3506 18.1904L27.0185 20.4827ZM34.196 40.5465L38.8689 43.2002L38.8908 17.9878L34.1952 15.2514V40.5473L34.196 40.5465ZM39.4439 11.5775L34.7279 14.3504L39.5032 17.1273L44.1606 14.3277L39.4439 11.5775ZM33.7087 13.7581L38.4628 11.0201L21.0957 0.912409L16.5072 3.75655L33.7087 13.7589V13.7581ZM44.8225 15.0926L39.9709 17.9295L40.0708 43.3258L62.0954 30.7573L62.0435 26.4198L44.8469 36.3743V30.763L44.8233 15.0934L44.8225 15.0926ZM61.5838 25.6208L57.9886 23.4411L45.7061 30.3019L45.7037 34.7885L61.5838 25.6208ZM15.0365 3.59368C17.0538 2.40498 19.1223 1.1871 21.1412 0.000823975C29.2664 4.69083 37.5833 9.52101 45.6964 14.2321L45.7118 29.2218L57.926 22.4428C59.4975 23.3722 61.3718 24.4678 62.9441 25.3964L62.9652 31.3277C55.2371 35.8516 47.3206 40.3779 39.5819 44.884C31.4128 40.2191 23.195 35.5145 15.0365 30.831V3.59449V3.59368Z" fill="white"/>
</g>
<defs>
<clipPath id="clip0">
<rect width="78" height="61" fill="white"/>
</clipPath>
<clipPath id="clip1">
<rect width="78.8544" height="11.8017" fill="white" transform="translate(0 49.1736)"/>
</clipPath>
</defs>
</svg>
