<svg width="97" height="26" viewBox="0 0 97 26" fill="none" xmlns="http://www.w3.org/2000/svg">
<path d="M3.132 26L4.176 18.584H8.388L9.468 26H11.844L8.424 0.799998H4.14L0.72 26H3.132ZM6.372 3.14L8.136 16.388H4.428L6.192 3.14H6.372ZM16.2588 14.48V8.828H19.5708C20.1468 8.828 20.6868 9.332 20.6868 9.944V12.788C20.6868 13.652 19.9308 14.48 18.9948 14.48H16.2588ZM19.1028 16.712C20.0388 16.712 20.6868 17.432 20.6868 18.368V26H22.9188V18.152C22.9188 17.036 22.1988 15.992 21.1548 15.596C22.1988 15.02 22.9188 13.94 22.9188 12.86V9.944C22.9188 8.072 21.4068 6.56 19.5708 6.56H13.9908V26H16.2588V16.712H19.1028ZM25.8033 19.592V22.652C25.8033 24.488 27.3513 26 29.1873 26H31.0233C32.8953 26 34.4073 24.488 34.4073 22.652V20.96C34.4073 19.592 34.1193 18.8 33.1473 17.828L28.9353 13.688C28.3593 13.112 28.0713 12.536 28.0713 11.708V9.944C28.0713 9.332 28.5753 8.828 29.1873 8.828H31.0233C31.6713 8.828 32.1753 9.332 32.1753 9.944V11.816H34.4073V9.944C34.4073 8.072 32.8953 6.56 31.0233 6.56H29.1873C27.3513 6.56 25.8033 8.072 25.8033 9.944V11.888C25.8033 13.4 26.1993 14.3 27.3153 15.38L31.4193 19.448C31.9233 19.952 32.1753 20.456 32.1753 21.14V22.652C32.1753 23.264 31.6713 23.768 31.0233 23.768H29.1873C28.5753 23.768 28.0713 23.264 28.0713 22.652V19.592H25.8033ZM37.2994 19.592V22.652C37.2994 24.488 38.8474 26 40.6834 26H42.5194C44.3914 26 45.9034 24.488 45.9034 22.652V20.96C45.9034 19.592 45.6154 18.8 44.6434 17.828L40.4314 13.688C39.8554 13.112 39.5674 12.536 39.5674 11.708V9.944C39.5674 9.332 40.0714 8.828 40.6834 8.828H42.5194C43.1674 8.828 43.6714 9.332 43.6714 9.944V11.816H45.9034V9.944C45.9034 8.072 44.3914 6.56 42.5194 6.56H40.6834C38.8474 6.56 37.2994 8.072 37.2994 9.944V11.888C37.2994 13.4 37.6954 14.3 38.8114 15.38L42.9154 19.448C43.4194 19.952 43.6714 20.456 43.6714 21.14V22.652C43.6714 23.264 43.1674 23.768 42.5194 23.768H40.6834C40.0714 23.768 39.5674 23.264 39.5674 22.652V19.592H37.2994ZM56.6435 8.828V6.56H48.2555V8.828H51.3155V26H53.5475V8.828H56.6435ZM61.2588 14.48V8.828H64.5708C65.1468 8.828 65.6868 9.332 65.6868 9.944V12.788C65.6868 13.652 64.9308 14.48 63.9948 14.48H61.2588ZM64.1028 16.712C65.0388 16.712 65.6868 17.432 65.6868 18.368V26H67.9188V18.152C67.9188 17.036 67.1988 15.992 66.1548 15.596C67.1988 15.02 67.9188 13.94 67.9188 12.86V9.944C67.9188 8.072 66.4068 6.56 64.5708 6.56H58.9908V26H61.2588V16.712H64.1028ZM77.8953 22.652C77.8953 23.264 77.3913 23.768 76.7793 23.768H74.1873C73.5753 23.768 73.0713 23.264 73.0713 22.652V9.944C73.0713 9.332 73.5753 8.828 74.1873 8.828H76.7793C77.3913 8.828 77.8953 9.332 77.8953 9.944V22.652ZM80.1633 9.944C80.1633 8.072 78.6153 6.56 76.7793 6.56H74.1873C72.3153 6.56 70.8033 8.108 70.8033 9.944V22.652C70.8033 24.488 72.3153 26 74.1873 26H76.7793C78.6513 26 80.1633 24.488 80.1633 22.652V9.944ZM96.8977 26V6.56H93.8737L89.9497 22.652L86.0617 6.56H83.0377V26H85.3057V18.692L84.5497 9.548L88.5817 26H91.3537L95.3497 9.548L94.6297 18.548V26H96.8977Z" fill="white"/>
</svg>
