<svg width="22" height="22" viewBox="0 0 22 22" fill="none" xmlns="http://www.w3.org/2000/svg">
<path d="M17.3822 2.63578H13.9578C13.7869 1.15447 12.5266 0 11.0002 0C9.47382 0 8.21369 1.15443 8.04286 2.63578H4.61819C3.23232 2.63578 2.10498 3.76344 2.10498 5.14926V5.27822C2.10498 6.33725 2.76439 7.24369 3.69332 7.61303V19.4865C3.69332 20.8724 4.8208 22 6.20657 22H15.7939C17.1797 22 18.3071 20.8723 18.3071 19.4865V7.61308C19.236 7.24369 19.8954 6.33725 19.8954 5.27827V5.14931C19.8954 3.76344 18.768 2.63578 17.3822 2.63578ZM11.0002 1.19201C11.8683 1.19201 12.593 1.81425 12.7533 2.63578H9.24741C9.4077 1.81421 10.1324 1.19201 11.0002 1.19201ZM17.1151 19.4865C17.1151 20.2152 16.5223 20.808 15.7938 20.808H6.20653C5.47812 20.808 4.88528 20.2151 4.88528 19.4865V7.7917H17.1151V19.4865ZM18.7034 5.27822C18.7034 6.00686 18.1106 6.59974 17.3822 6.59974H4.61819C3.88978 6.59974 3.29694 6.00686 3.29694 5.27822V5.14926C3.29694 4.42062 3.88978 3.82774 4.61819 3.82774H17.3822C18.1106 3.82774 18.7035 4.42062 18.7035 5.14926V5.27822H18.7034Z" fill="#123208"/>
<path d="M7.80497 19.2839C8.13413 19.2839 8.40095 19.017 8.40095 18.688V11.9774C8.40095 11.6483 8.13408 11.3813 7.80497 11.3813C7.47585 11.3813 7.20898 11.6483 7.20898 11.9774V18.688C7.20894 19.0171 7.47581 19.2839 7.80497 19.2839Z" fill="#123208"/>
<path d="M10.9998 19.2839C11.3289 19.2839 11.5958 19.017 11.5958 18.688V11.9774C11.5958 11.6483 11.3288 11.3813 10.9998 11.3813C10.6707 11.3813 10.4038 11.6483 10.4038 11.9774V18.688C10.4038 19.0171 10.6706 19.2839 10.9998 19.2839Z" fill="#123208"/>
<path d="M14.1956 19.2839C14.5248 19.2839 14.7916 19.017 14.7916 18.688V11.9774C14.7916 11.6483 14.5247 11.3813 14.1956 11.3813C13.8664 11.3813 13.5996 11.6483 13.5996 11.9774V18.688C13.5996 19.0171 13.8665 19.2839 14.1956 19.2839Z" fill="#123208"/>
</svg>
