<svg width="22" height="22" viewBox="0 0 22 22" fill="none" xmlns="http://www.w3.org/2000/svg">
<path d="M16.9231 18.6155C16.9231 19.0829 17.0888 19.4816 17.4191 19.8118C17.7494 20.1424 18.1484 20.3078 18.6159 20.3078C19.0827 20.3078 19.4818 20.1424 19.812 19.8118C20.1426 19.4816 20.308 19.0829 20.308 18.6155C20.308 18.1482 20.1428 17.7495 19.812 17.4189C19.4818 17.0886 19.0827 16.9232 18.6159 16.9232C18.1484 16.9232 17.7494 17.0886 17.4191 17.4189C17.0888 17.7495 16.9231 18.1482 16.9231 18.6155Z" fill="white"/>
<path d="M21.7487 3.63562C21.5812 3.46812 21.383 3.38435 21.1538 3.38435H5.27527C5.26633 3.32272 5.24651 3.21042 5.21567 3.04737C5.18483 2.88423 5.16066 2.75429 5.14301 2.65723C5.12528 2.56059 5.0924 2.44371 5.04382 2.3071C4.99534 2.1704 4.93806 2.06232 4.87198 1.98318C4.80599 1.90362 4.71786 1.83551 4.60765 1.77804C4.49753 1.72094 4.37185 1.69223 4.23089 1.69223H0.846318C0.617002 1.69223 0.418713 1.77614 0.251265 1.9434C0.0837704 2.11085 0 2.30928 0 2.53841C0 2.76754 0.0837704 2.96587 0.251265 3.13332C0.418852 3.30081 0.617188 3.38449 0.846318 3.38449H3.54313L5.88315 14.2656C5.86564 14.3008 5.7753 14.4681 5.61216 14.768C5.44911 15.0678 5.31912 15.3299 5.22225 15.5547C5.12533 15.7797 5.07684 15.9536 5.07684 16.077C5.07684 16.3061 5.16061 16.5045 5.32801 16.6722C5.49569 16.8392 5.69394 16.9232 5.92311 16.9232H6.76924H18.6154H19.461C19.6902 16.9232 19.8886 16.8392 20.056 16.6722C20.2236 16.5045 20.3073 16.3061 20.3073 16.077C20.3073 15.8478 20.2236 15.6494 20.056 15.482C19.8886 15.3147 19.6902 15.2307 19.461 15.2307H7.29789C7.50952 14.8075 7.61528 14.5258 7.61528 14.3847C7.61528 14.2963 7.60426 14.1993 7.58217 14.0938C7.56009 13.9883 7.53369 13.8713 7.50285 13.7433C7.47196 13.6159 7.45224 13.5211 7.44344 13.4593L21.2467 11.8464C21.4668 11.8197 21.6476 11.7253 21.7886 11.562C21.9297 11.3991 22 11.2118 22 11.0002V4.23081C21.9999 4.00168 21.9164 3.80334 21.7487 3.63562Z" fill="white"/>
<path d="M5.07666 18.6155C5.07666 19.0829 5.24184 19.4816 5.57243 19.8118C5.90311 20.1424 6.30177 20.3078 6.76906 20.3078C7.23608 20.3078 7.63497 20.1424 7.96542 19.8118C8.29601 19.4816 8.46137 19.0829 8.46137 18.6155C8.46137 18.1482 8.29615 17.7495 7.96542 17.4189C7.63492 17.0886 7.23608 16.9232 6.76906 16.9232C6.30182 16.9232 5.90293 17.0886 5.57243 17.4189C5.24202 17.7495 5.07666 18.1482 5.07666 18.6155Z" fill="white"/>
</svg>
