<svg width="39" height="49" viewBox="0 0 39 49" fill="none" xmlns="http://www.w3.org/2000/svg">
<path d="M38.0438 10.2959L37.3924 9.64455L28.8639 1.11602L28.2125 0.464655C27.9177 0.16981 27.5088 0 27.0906 0H2.57202C1.57006 0 0.491211 0.773862 0.491211 2.47197V32.9483V46.9192V47.3103C0.491211 48.0175 1.20256 48.7068 2.044 48.924C2.08625 48.9349 2.1268 48.951 2.17073 48.9594C2.30252 48.9856 2.43685 49 2.57202 49H36.4276C36.5628 49 36.6971 48.9856 36.8289 48.9594C36.8729 48.951 36.9134 48.9349 36.9557 48.924C37.7971 48.7068 38.5085 48.0175 38.5085 47.3103V46.9192V32.9483V11.809C38.5085 11.161 38.4307 10.6828 38.0438 10.2959ZM35.4966 10.1379H28.3705V3.01181L35.4966 10.1379ZM2.57202 47.3103C2.51204 47.3103 2.45797 47.2884 2.40475 47.2689C2.27295 47.2064 2.18087 47.0746 2.18087 46.9192V34.6379H36.8188V46.9192C36.8188 47.0746 36.7267 47.2056 36.5949 47.2689C36.5417 47.2884 36.4876 47.3103 36.4276 47.3103H2.57202ZM2.18087 32.9483V2.47197C2.18087 2.28864 2.20875 1.68966 2.57202 1.68966H26.7299C26.702 1.7961 26.6809 1.90593 26.6809 2.01998V11.8276H36.4885C36.6025 11.8276 36.7115 11.8065 36.818 11.7786C36.818 11.7913 36.8188 11.7963 36.8188 11.809V32.9483H2.18087Z" fill="#F18F35"/>
<path d="M13.6215 37.801C13.3402 37.5703 13.0226 37.3963 12.6686 37.2814C12.3146 37.1657 11.9564 37.1082 11.5948 37.1082H9.14648V45.6207H10.5328V42.5481H11.561C12.0071 42.5481 12.416 42.483 12.7852 42.3521C13.1543 42.2211 13.4703 42.0361 13.7322 41.7978C13.9941 41.5596 14.1977 41.2648 14.3447 40.9142C14.4909 40.5636 14.5644 40.1732 14.5644 39.7415C14.5644 39.3335 14.4773 38.966 14.3042 38.6382C14.131 38.3104 13.9029 38.0324 13.6215 37.801ZM13.0961 40.6134C13.0107 40.8483 12.9001 41.0307 12.7615 41.1617C12.6229 41.2926 12.4709 41.3873 12.3053 41.4447C12.1397 41.5022 11.9716 41.5317 11.8026 41.5317H10.532V38.1592H11.5711C11.9251 38.1592 12.2098 38.2149 12.4261 38.3265C12.6415 38.438 12.8088 38.5765 12.9288 38.7421C13.0479 38.9077 13.1265 39.0809 13.1653 39.2617C13.2033 39.4425 13.2228 39.6021 13.2228 39.7407C13.2228 40.0879 13.1805 40.3785 13.0961 40.6134Z" fill="#F18F35"/>
<path d="M21.9954 38.3552C21.6372 37.9784 21.1869 37.6751 20.6436 37.4487C20.1004 37.2223 19.471 37.1082 18.7555 37.1082H16.1914V45.6207H19.4136C19.5209 45.6207 19.6865 45.6072 19.9103 45.5801C20.1334 45.5531 20.3801 45.4923 20.6496 45.3951C20.9191 45.2988 21.1979 45.1543 21.4868 44.9617C21.7757 44.7691 22.0351 44.5055 22.2666 44.1701C22.498 43.8347 22.6881 43.4191 22.8385 42.9223C22.9889 42.4256 23.0641 41.8266 23.0641 41.1262C23.0641 40.6176 22.9754 40.1226 22.7988 39.6418C22.6205 39.162 22.3536 38.7328 21.9954 38.3552ZM20.985 43.7029C20.5693 44.3036 19.8918 44.6035 18.9523 44.6035H17.5778V38.1583H18.3863C19.0486 38.1583 19.5876 38.2453 20.0033 38.4185C20.4189 38.5917 20.7484 38.819 20.9909 39.1003C21.2333 39.3816 21.3964 39.6951 21.4817 40.0415C21.5662 40.3878 21.6084 40.7384 21.6084 41.0924C21.6084 42.2321 21.4006 43.1031 20.985 43.7029Z" fill="#F18F35"/>
<path d="M25.0742 45.6207H26.4834V41.786H30.041V40.839H26.4834V38.1592H30.3983V37.1082H25.0742V45.6207Z" fill="#F18F35"/>
<path d="M27.4654 19.3981C26.689 19.3981 25.736 19.4995 24.6284 19.7005C23.0824 18.0599 21.4688 15.6639 20.3299 13.3119C21.4595 8.55641 20.8943 7.88309 20.6451 7.56543C20.3798 7.2275 20.0055 6.67921 19.5797 6.67921C19.4015 6.67921 18.9149 6.76031 18.7214 6.82452C18.2348 6.98672 17.9729 7.36183 17.7634 7.85098C17.1661 9.24748 17.9855 11.6282 18.8287 13.4632C18.108 16.3297 16.8991 19.7605 15.6285 22.5451C12.4266 24.0117 10.7259 25.4521 10.5722 26.8267C10.5164 27.3268 10.6347 28.0609 11.5142 28.7208C11.7549 28.9007 12.0371 28.9962 12.3311 28.9962C13.0703 28.9962 13.8172 28.4301 14.6814 27.2161C15.3117 26.3307 15.9884 25.1235 16.6946 23.6248C18.9571 22.6355 21.756 21.7416 24.1528 21.2407C25.4876 22.5223 26.683 23.1711 27.7103 23.1711C28.4673 23.1711 29.1161 22.823 29.5859 22.1649C30.075 21.4797 30.1865 20.8664 29.9153 20.3401C29.5901 19.7073 28.7884 19.3981 27.4654 19.3981ZM12.3497 27.5701C11.9543 27.2668 11.9771 27.0624 11.9856 26.9855C12.038 26.5158 12.7738 25.6819 14.5792 24.6673C13.2106 27.195 12.4756 27.5304 12.3497 27.5701ZM19.2773 8.20497C19.3136 8.19314 20.1601 9.13512 19.3584 10.9219C18.1537 9.68933 19.1945 8.23284 19.2773 8.20497ZM17.531 21.7442C18.3885 19.7005 19.186 17.444 19.7901 15.3539C20.7388 17.0588 21.8785 18.7129 23.019 20.0376C21.2162 20.4609 19.2967 21.0582 17.531 21.7442ZM28.4301 21.3395C28.1699 21.7036 27.6056 21.7121 27.4079 21.7121C26.9576 21.7121 26.7895 21.4443 26.101 20.9146C26.6687 20.8419 27.2043 20.8233 27.6309 20.8233C28.382 20.8233 28.5197 20.934 28.6236 20.9897C28.605 21.0497 28.556 21.1629 28.4301 21.3395Z" fill="#F18F35"/>
</svg>
