<svg width="107" height="36" viewBox="0 0 107 36" fill="none" xmlns="http://www.w3.org/2000/svg">
<path d="M44.1147 16.0012V7.96216H47.5475C50.0887 7.96216 51.9611 9.45576 51.9611 11.9596C51.9611 14.4636 50.1334 15.9572 47.5922 15.9572H44.1147V16.0012ZM49.8212 12.0036C49.8212 10.7736 49.0634 9.80722 47.5922 9.80722H46.2547V14.2H47.5922C48.9741 14.2 49.8212 13.1898 49.8212 12.0036Z" fill="white"/>
<path d="M52.7639 12.0036C52.7639 9.54347 54.6363 7.87427 57.1329 7.87427C59.6296 7.87427 61.4574 9.58747 61.4574 12.0036C61.4574 14.4197 59.585 16.1329 57.1329 16.1329C54.5918 16.1329 52.7639 14.4197 52.7639 12.0036ZM59.3174 12.0036C59.3174 10.6857 58.4704 9.67533 57.1329 9.67533C55.7954 9.67533 54.9038 10.6857 54.9038 12.0036C54.9038 13.3215 55.7509 14.3319 57.1329 14.3319C58.4259 14.3319 59.3174 13.2775 59.3174 12.0036Z" fill="white"/>
<path d="M67.2539 16.0012L65.8721 13.3215H64.802V16.0012H62.7065V7.96216H66.7636C68.5469 7.96216 69.5722 9.14816 69.5722 10.6418C69.5722 12.0475 68.7252 12.7943 67.9672 13.0579L69.617 16.0012H67.2539ZM67.4768 10.6418C67.4768 10.1147 67.0312 9.80722 66.4516 9.80722H64.802V11.5204H66.4516C66.9865 11.5204 67.4768 11.213 67.4768 10.6418Z" fill="white"/>
<path d="M70.4189 12.0036C70.4189 9.54347 72.2915 7.87427 74.7881 7.87427C77.2846 7.87427 79.1125 9.58747 79.1125 12.0036C79.1125 14.4197 77.24 16.1329 74.7881 16.1329C72.2915 16.1329 70.4189 14.4197 70.4189 12.0036ZM77.0171 12.0036C77.0171 10.6857 76.17 9.67533 74.8325 9.67533C73.4951 9.67533 72.6035 10.6857 72.6035 12.0036C72.6035 13.3215 73.4506 14.3319 74.8325 14.3319C76.1255 14.3319 77.0171 13.2775 77.0171 12.0036Z" fill="white"/>
<path d="M85.8449 16.0012V12.7943H82.4566V16.0012H80.3613V7.96216H82.4566V10.9932H85.8449V8.00602H87.9403V16.0012H85.8449Z" fill="white"/>
<path d="M89.1882 12.0036C89.1882 9.54347 91.0606 7.87427 93.5572 7.87427C96.0539 7.87427 97.8817 9.58747 97.8817 12.0036C97.8817 14.4197 96.0093 16.1329 93.5572 16.1329C91.0606 16.1329 89.1882 14.4197 89.1882 12.0036ZM95.7418 12.0036C95.7418 10.6857 94.8947 9.67533 93.5127 9.67533C92.1752 9.67533 91.2835 10.6857 91.2835 12.0036C91.2835 13.3215 92.1306 14.3319 93.5127 14.3319C94.8947 14.3319 95.7418 13.2775 95.7418 12.0036Z" fill="white"/>
<path d="M101.002 16.0012L97.9263 7.96216H100.289L102.295 13.7608L104.302 7.96216H106.664L103.588 15.9572H101.002V16.0012Z" fill="white"/>
<path d="M44.1147 27.9943V19.9993H47.5475C50.0887 19.9993 51.9611 21.4929 51.9611 23.9969C51.9611 26.5009 50.1334 27.9943 47.5922 27.9943H44.1147ZM49.8212 23.9969C49.8212 22.7669 49.0634 21.8003 47.5922 21.8003H46.2547V26.1933H47.5922C48.9741 26.1933 49.8212 25.1829 49.8212 23.9969Z" fill="white"/>
<path d="M53.2102 27.9943V19.9993H59.1397V21.8003H55.261V23.0303H59.0504V24.8315H55.261V26.1933H59.1397V27.9943H53.2102Z" fill="white"/>
<path d="M60.0757 26.8957L61.1901 25.3581C61.7697 25.9292 62.6614 26.4124 63.776 26.4124C64.4893 26.4124 64.9351 26.1489 64.9351 25.7534C64.9351 24.6553 60.3431 25.5338 60.3431 22.4588C60.3431 21.097 61.5023 19.9109 63.5976 19.9109C64.8904 19.9109 66.0497 20.3062 66.8967 21.0092L65.7375 22.5028C65.0688 21.9317 64.1771 21.6681 63.3747 21.6681C62.7505 21.6681 62.483 21.8877 62.483 22.2392C62.483 23.2496 67.075 22.5028 67.075 25.49C67.075 27.1153 65.8713 28.1696 63.6867 28.1696C62.0372 28.1696 60.8781 27.6425 60.0757 26.8957Z" fill="white"/>
<path d="M68.2788 27.9943V19.9993H70.3742V27.9943H68.2788Z" fill="white"/>
<path d="M71.6221 23.9965C71.6221 21.4487 73.5836 19.8672 76.0357 19.8672C77.8636 19.8672 78.9335 20.8336 79.5131 21.8001L77.7743 22.6787C77.4623 22.1515 76.8381 21.6683 76.0357 21.6683C74.6982 21.6683 73.762 22.6787 73.762 23.9965C73.762 25.3144 74.6982 26.3248 76.0357 26.3248C76.6152 26.3248 77.2394 26.1052 77.5514 25.8416V25.2265H75.7235V23.4255H79.6469V26.6323C78.7552 27.5987 77.5961 28.2137 76.0357 28.2137C73.6282 28.1699 71.6221 26.5444 71.6221 23.9965Z" fill="white"/>
<path d="M86.6466 27.9945L83.2137 23.3818V28.0383H81.1184V19.9993H83.2583L86.5573 24.3922V19.9993H88.6528V27.9945H86.6466Z" fill="white"/>
<path d="M14.2898 0.669922H0.380127V35.2423H14.3789C26.1486 35.2423 33.7276 28.4333 33.7276 17.9342C33.683 7.43512 26.1041 0.669922 14.2898 0.669922ZM13.9331 28.3015H7.73623V8.09405H14.0222C21.2892 8.09405 26.3715 10.9055 26.3715 17.9781C26.3715 23.645 21.735 28.3015 13.9331 28.3015Z" fill="white"/>
<path d="M15.3595 13.8489H13.7546V22.0637H15.3595C18.5249 22.0637 20.3973 20.1747 20.3973 17.8465C20.3528 14.991 18.302 13.8489 15.3595 13.8489Z" fill="white"/>
</svg>
