<svg width="17" height="17" viewBox="0 0 17 17" fill="none" xmlns="http://www.w3.org/2000/svg">
<g clip-path="url(#clip0)">
<path d="M16.6988 13.1727C16.6541 13.038 16.3697 12.8396 15.8458 12.5779C15.7038 12.4954 15.5016 12.3833 15.2399 12.2411C14.978 12.0989 14.7402 11.9679 14.5271 11.8481C14.3135 11.7284 14.1135 11.6124 13.9265 11.5003C13.8966 11.4779 13.8031 11.4125 13.646 11.3038C13.4887 11.1953 13.356 11.1148 13.2473 11.0624C13.1388 11.0102 13.0321 10.9839 12.9273 10.9839C12.7777 10.9839 12.5908 11.0906 12.3664 11.3038C12.142 11.5172 11.9361 11.749 11.7491 11.9999C11.5621 12.2507 11.3637 12.4825 11.1544 12.6958C10.9448 12.9091 10.7726 13.0157 10.638 13.0157C10.5705 13.0157 10.4863 12.9969 10.3853 12.9597C10.2845 12.9223 10.2077 12.8903 10.155 12.8645C10.1028 12.8381 10.0132 12.7859 9.88591 12.7071C9.75837 12.6285 9.68744 12.5854 9.6725 12.5779C8.64734 12.009 7.76812 11.358 7.03469 10.6249C6.30148 9.8913 5.65034 9.01215 5.08163 7.98688C5.07416 7.9719 5.03103 7.90078 4.95252 7.77363C4.87389 7.64636 4.82148 7.55668 4.7953 7.50416C4.76911 7.45183 4.7373 7.37508 4.69995 7.27408C4.6626 7.17308 4.64385 7.08894 4.64385 7.02152C4.64385 6.8869 4.75051 6.7147 4.9638 6.50514C5.17705 6.29571 5.40909 6.09732 5.65969 5.91037C5.91049 5.72343 6.14229 5.51757 6.35562 5.29315C6.56887 5.06862 6.6755 4.88164 6.6755 4.732C6.6755 4.6273 6.64931 4.52056 6.59698 4.41209C6.54461 4.30338 6.46417 4.17073 6.35562 4.0135C6.24703 3.85636 6.18157 3.7629 6.15908 3.73283C6.04695 3.54588 5.93109 3.34572 5.81122 3.13244C5.69134 2.91919 5.5605 2.68148 5.41825 2.4196C5.27613 2.15784 5.16396 1.95571 5.08155 1.81355C4.81979 1.28982 4.62152 1.00533 4.48678 0.960591C4.43438 0.938142 4.35574 0.926819 4.25109 0.926819C4.04892 0.926819 3.78519 0.964169 3.4597 1.0391C3.13408 1.11392 2.87786 1.1924 2.69076 1.27484C2.31659 1.43191 1.92001 1.88837 1.50091 2.64406C1.11927 3.34734 0.928467 4.04342 0.928467 4.7318C0.928467 4.93369 0.941559 5.13011 0.967743 5.32111C0.993928 5.51191 1.04071 5.72708 1.10814 5.96659C1.17545 6.20603 1.22974 6.38389 1.27079 6.49972C1.31187 6.61562 1.38858 6.82325 1.50087 7.12268C1.61299 7.42203 1.68042 7.60528 1.70287 7.67263C1.96475 8.40602 2.27531 9.06075 2.63446 9.637C3.22538 10.5948 4.03178 11.5847 5.05321 12.6062C6.07467 13.6276 7.06433 14.434 8.02222 15.0251C8.59839 15.3842 9.25336 15.6947 9.98663 15.9568C10.054 15.9792 10.2373 16.0464 10.5365 16.1589C10.8359 16.2712 11.0436 16.3479 11.1595 16.389C11.2754 16.4302 11.4533 16.4846 11.6925 16.552C11.9323 16.6194 12.1473 16.6662 12.3381 16.6926C12.529 16.7184 12.7255 16.7317 12.9274 16.7317C13.6157 16.7317 14.3118 16.5408 15.0152 16.1592C15.7709 15.7403 16.2272 15.3436 16.3843 14.9692C16.467 14.7823 16.5453 14.526 16.6201 14.2003C16.6951 13.8749 16.7324 13.6112 16.7324 13.4091C16.7326 13.304 16.7214 13.2256 16.6988 13.1727Z" fill="white"/>
</g>
<defs>
<clipPath id="clip0">
<rect width="15.8049" height="15.8049" fill="white" transform="translate(0.926758 0.926819)"/>
</clipPath>
</defs>
</svg>
