<svg width="20" height="20" viewBox="0 0 20 20" fill="none" xmlns="http://www.w3.org/2000/svg">
<path d="M18.9146 8.60558H11.3953V1.08624C11.3953 0.743708 10.9302 0.000976562 9.99996 0.000976562C9.06974 0.000976562 8.6046 0.743749 8.6046 1.08624V8.60562H1.08527C0.742772 8.60558 0 9.07071 0 10.0009C0 10.9311 0.742772 11.3963 1.08527 11.3963H8.60464V18.9156C8.60464 19.2581 9.06974 20.0009 10 20.0009C10.9303 20.0009 11.3954 19.2581 11.3954 18.9156V11.3963H18.9147C19.2572 11.3963 20 10.9312 20 10.0009C20 9.07063 19.2571 8.60558 18.9146 8.60558Z" fill="#123208"/>
</svg>
