<svg width="21" height="21" viewBox="0 0 21 21" fill="none" xmlns="http://www.w3.org/2000/svg">
<g clip-path="url(#clip0)">
<path fill-rule="evenodd" clip-rule="evenodd" d="M20.2577 17.752L15.7594 13.2539C15.7355 13.23 15.7075 13.2133 15.6825 13.191C16.5676 11.8484 17.0842 10.2412 17.0842 8.51288C17.0842 3.81132 13.2729 0 8.57139 0C3.86992 0 0.0585938 3.81132 0.0585938 8.51279C0.0585938 13.2142 3.86983 17.0256 8.57131 17.0256C10.2997 17.0256 11.9068 16.509 13.2495 15.6239C13.2717 15.6488 13.2883 15.6768 13.3122 15.7007L17.8105 20.1991C18.4863 20.8747 19.5818 20.8747 20.2577 20.1991C20.9333 19.5233 20.9333 18.4278 20.2577 17.752ZM8.57139 14.0745C5.49967 14.0745 3.00963 11.5844 3.00963 8.51279C3.00963 5.44107 5.49975 2.95103 8.57139 2.95103C11.6429 2.95103 14.1331 5.44115 14.1331 8.51279C14.1331 11.5844 11.6429 14.0745 8.57139 14.0745Z" fill="white"/>
</g>
<defs>
<clipPath id="clip0">
<rect width="20.7059" height="20.7059" fill="white" transform="translate(0.0585938)"/>
</clipPath>
</defs>
</svg>
