<svg width="22" height="22" viewBox="0 0 22 22" fill="none" xmlns="http://www.w3.org/2000/svg">
<g clip-path="url(#clip0)">
<path d="M10.9998 10.7594C13.4458 10.7594 15.4289 8.35089 15.4289 5.37975C15.4289 2.40856 14.7778 0 10.9998 0C7.22176 0 6.57056 2.40856 6.57056 5.37975C6.57056 8.35089 8.55364 10.7594 10.9998 10.7594Z" fill="white"/>
<path d="M2.63417 18.9736C2.63342 18.7925 2.63266 18.9226 2.63417 18.9736V18.9736Z" fill="white"/>
<path d="M19.3652 19.1151C19.3676 19.0655 19.366 18.771 19.3652 19.1151V19.1151Z" fill="white"/>
<path d="M19.3557 18.7564C19.2737 13.5806 18.5977 12.1058 13.425 11.1722C13.425 11.1722 12.6969 12.1001 10.9998 12.1001C9.30261 12.1001 8.57435 11.1722 8.57435 11.1722C3.45809 12.0956 2.74102 13.5486 2.64673 18.5883C2.639 18.9998 2.63542 19.0214 2.63403 18.9736C2.63435 19.0631 2.63472 19.2287 2.63472 19.5174C2.63472 19.5174 3.86622 22 10.9998 22C18.1332 22 19.3648 19.5174 19.3648 19.5174C19.3648 19.3319 19.3649 19.2029 19.3651 19.1152C19.3637 19.1447 19.361 19.0875 19.3557 18.7564Z" fill="white"/>
</g>
<defs>
<clipPath id="clip0">
<rect width="22" height="22" fill="white"/>
</clipPath>
</defs>
</svg>
