<svg width="78" height="61" fill="none" xmlns="http://www.w3.org/2000/svg"><g clip-path="url(#clip0)"><g clip-path="url(#clip1)"><path d="M8.069 58.748c-.35.501-.841.877-1.471 1.127-.626.246-1.355.369-2.189.369-.843 0-1.592-.196-2.246-.588-.653-.398-1.16-.96-1.52-1.688-.356-.728-.538-1.572-.548-2.531v-.9c0-1.556.363-2.761 1.088-3.617.73-.856 1.753-1.283 3.07-1.283 1.08 0 1.95.276 2.608.83.658.548 1.061 1.328 1.208 2.34H6.704c-.255-1.367-1.07-2.05-2.444-2.05-.915 0-1.609.321-2.082.964-.47.638-.706 1.565-.711 2.78v.843c0 1.159.265 2.08.796 2.766.53.68 1.248 1.02 2.153 1.02.512 0 .96-.056 1.343-.17.384-.113.701-.304.953-.574v-2.318H4.317v-1.106h3.752v3.786zm6.881-2.822h-2.43v4.176h-1.372V49.78h3.425c1.166 0 2.061.264 2.686.794.63.53.946 1.3.946 2.311 0 .643-.176 1.203-.526 1.68-.346.478-.83.835-1.45 1.071l2.43 4.382v.085h-1.463l-2.246-4.176zm-2.43-1.113h2.096c.677 0 1.215-.175 1.613-.525.403-.35.604-.818.604-1.404 0-.638-.192-1.127-.575-1.468-.38-.34-.93-.512-1.65-.517H12.52v3.914zm13.346.517H21.38v3.66h5.21v1.112h-6.574V49.78h6.502v1.12h-5.137v3.318h4.484v1.113zm7.741 0h-4.484v3.66h5.21v1.112h-6.574V49.78h6.502v1.12h-5.138v3.318h4.484v1.113zm9.845 4.772h-1.371l-5.21-7.955v7.955h-1.37V49.78h1.37l5.224 7.99v-7.99h1.357v10.323z" fill="#fff"/><path d="M51.468 58.99h4.903v1.112h-6.275V49.78h1.372v9.21zm7.208 1.112h-1.364V49.78h1.364v10.323zm10.999 0h-1.371l-5.209-7.955v7.955h-1.372V49.78h1.372l5.223 7.99v-7.99h1.358v10.323zm9.248-4.772h-4.484v3.66h5.209v1.112h-6.574V49.78h6.503v1.12h-5.138v3.318h4.484v1.113z" fill="#A6A6A6"/></g><path d="M29.246 17.67l-7.441-4.279.054 14.85 6.018 3.437-.003-4.303-2.358-1.329c.068-1.66-.1-4.018-.036-5.677l3.767-2.7zM16.36 4.854l-.45 25.308 17.31 9.828-.006-14.7-6.694-3.919-.004 4.123 2.368 1.291.027 6.597c-2.42-1.447-5.745-3.21-8.166-4.656.02-5.361-.011-11.874 0-17.235 2.877 1.902 9.527 5.394 12.467 7.322l-.002-4.139-16.85-9.82zm10.66 15.628l6.194 3.609-.002-4.106-2.86-1.796-3.332 2.293zm7.177 20.064l4.673 2.653.022-25.212-4.696-2.737v25.296h.001zm5.248-28.97l-4.716 2.773 4.775 2.777 4.658-2.8-4.717-2.75zm-5.735 2.181l4.754-2.738L21.096.912l-4.589 2.845L33.71 13.759zm11.113 1.335l-4.851 2.837.1 25.396 22.024-12.569-.051-4.337-17.197 9.954v-5.611l-.024-15.67zM61.584 25.62l-3.595-2.18-12.283 6.86-.002 4.488 15.88-9.168zM15.037 3.594C17.054 2.405 19.122 1.187 21.14 0c8.125 4.69 16.442 9.52 24.555 14.231l.016 14.99 12.214-6.78c1.572.93 3.446 2.026 5.018 2.954l.021 5.932c-7.728 4.524-15.644 9.05-23.383 13.556-8.17-4.665-16.387-9.37-24.546-14.053V3.594z" fill="#fff"/></g><defs><clipPath id="clip0"><path fill="#fff" d="M0 0h78v61H0z"/></clipPath><clipPath id="clip1"><path fill="#fff" transform="translate(0 49.174)" d="M0 0h78.854v11.802H0z"/></clipPath></defs></svg>